<mxfile host="app.diagrams.net" modified="2023-05-02T15:05:23.859Z" agent="5.0 (Windows NT 10.0; Win64; x64) AppleWebKit/537.36 (KHTML, like Gecko) Chrome/112.0.0.0 Safari/537.36" etag="04kt8EFnMeeY6GryFfDp" version="21.0.6" type="github" pages="3">
  <diagram name="Person Role Permission" id="u75_fXZrPRD8PWQ-MWaT">
    <mxGraphModel dx="852" dy="689" grid="1" gridSize="10" guides="1" tooltips="1" connect="1" arrows="1" fold="1" page="1" pageScale="1" pageWidth="850" pageHeight="1100" math="0" shadow="0">
      <root>
        <mxCell id="dMr1oW0Q8ULhSIMcVtM5-0" />
        <mxCell id="dMr1oW0Q8ULhSIMcVtM5-1" parent="dMr1oW0Q8ULhSIMcVtM5-0" />
        <mxCell id="dMr1oW0Q8ULhSIMcVtM5-2" value="DataRequest" style="swimlane;childLayout=stackLayout;horizontal=1;startSize=30;horizontalStack=0;rounded=1;fontSize=14;fontStyle=0;strokeWidth=2;resizeParent=0;resizeLast=1;shadow=0;dashed=0;align=center;fillColor=#ffe6cc;strokeColor=#d79b00;" parent="dMr1oW0Q8ULhSIMcVtM5-1" vertex="1">
          <mxGeometry x="60" y="290" width="275" height="250" as="geometry" />
        </mxCell>
        <mxCell id="dMr1oW0Q8ULhSIMcVtM5-3" value="+DataRequest_ID&#xa;+Name&#xa;+Status&#xa;+Protocol_ID&#xa;+Project_ID&#xa;+GitLabIssue_ID&#xa;+Visibility&#xa;+ MUCH MUCH MORE!!" style="align=left;strokeColor=none;fillColor=none;spacingLeft=4;fontSize=12;verticalAlign=top;resizable=0;rotatable=0;part=1;" parent="dMr1oW0Q8ULhSIMcVtM5-2" vertex="1">
          <mxGeometry y="30" width="275" height="220" as="geometry" />
        </mxCell>
        <mxCell id="dMr1oW0Q8ULhSIMcVtM5-4" value="Protocol" style="swimlane;childLayout=stackLayout;horizontal=1;startSize=30;horizontalStack=0;rounded=1;fontSize=14;fontStyle=0;strokeWidth=2;resizeParent=0;resizeLast=1;shadow=0;dashed=0;align=center;fillColor=#ffe6cc;strokeColor=#d79b00;" parent="dMr1oW0Q8ULhSIMcVtM5-1" vertex="1">
          <mxGeometry x="638.75" y="160" width="230" height="190" as="geometry" />
        </mxCell>
        <mxCell id="dMr1oW0Q8ULhSIMcVtM5-5" value="+Protocol_ID&#xa;+IRAP_ID&#xa;+Name&#xa;+Visibility" style="align=left;strokeColor=none;fillColor=none;spacingLeft=4;fontSize=12;verticalAlign=top;resizable=0;rotatable=0;part=1;" parent="dMr1oW0Q8ULhSIMcVtM5-4" vertex="1">
          <mxGeometry y="30" width="230" height="160" as="geometry" />
        </mxCell>
        <mxCell id="dMr1oW0Q8ULhSIMcVtM5-6" value="Cohort" style="swimlane;childLayout=stackLayout;horizontal=1;startSize=30;horizontalStack=0;rounded=1;fontSize=14;fontStyle=0;strokeWidth=2;resizeParent=0;resizeLast=1;shadow=0;dashed=0;align=center;fillColor=#ffe6cc;strokeColor=#d79b00;" parent="dMr1oW0Q8ULhSIMcVtM5-1" vertex="1">
          <mxGeometry x="638.75" y="400" width="230" height="200" as="geometry" />
        </mxCell>
        <mxCell id="dMr1oW0Q8ULhSIMcVtM5-7" value="+Cohort_ID&#xa;+Source&#xa;+Name&#xa;+Visibility" style="align=left;strokeColor=none;fillColor=none;spacingLeft=4;fontSize=12;verticalAlign=top;resizable=0;rotatable=0;part=1;" parent="dMr1oW0Q8ULhSIMcVtM5-6" vertex="1">
          <mxGeometry y="30" width="230" height="170" as="geometry" />
        </mxCell>
        <mxCell id="dMr1oW0Q8ULhSIMcVtM5-8" style="edgeStyle=orthogonalEdgeStyle;rounded=0;orthogonalLoop=1;jettySize=auto;html=1;exitX=0.5;exitY=0;exitDx=0;exitDy=0;entryX=1;entryY=0.5;entryDx=0;entryDy=0;startArrow=ERoneToMany;startFill=0;endArrow=ERmandOne;endFill=0;endSize=10;startSize=10;strokeWidth=2;strokeColor=#0000FF;" parent="dMr1oW0Q8ULhSIMcVtM5-1" source="dMr1oW0Q8ULhSIMcVtM5-69" target="dMr1oW0Q8ULhSIMcVtM5-3" edge="1">
          <mxGeometry relative="1" as="geometry">
            <mxPoint x="718.75" y="820" as="targetPoint" />
            <Array as="points">
              <mxPoint x="510" y="430" />
            </Array>
          </mxGeometry>
        </mxCell>
        <mxCell id="dMr1oW0Q8ULhSIMcVtM5-9" style="edgeStyle=orthogonalEdgeStyle;rounded=0;orthogonalLoop=1;jettySize=auto;html=1;exitX=0;exitY=0.25;exitDx=0;exitDy=0;entryX=0.566;entryY=1.009;entryDx=0;entryDy=0;startArrow=ERoneToMany;startFill=0;endArrow=ERmandOne;endFill=0;entryPerimeter=0;endSize=10;startSize=10;strokeColor=#0000FF;strokeWidth=2;" parent="dMr1oW0Q8ULhSIMcVtM5-1" source="dMr1oW0Q8ULhSIMcVtM5-66" target="dMr1oW0Q8ULhSIMcVtM5-7" edge="1">
          <mxGeometry relative="1" as="geometry">
            <mxPoint x="1068.75" y="580" as="targetPoint" />
            <Array as="points">
              <mxPoint x="769" y="752" />
            </Array>
          </mxGeometry>
        </mxCell>
        <mxCell id="dMr1oW0Q8ULhSIMcVtM5-10" value="Person" style="swimlane;childLayout=stackLayout;horizontal=1;startSize=30;horizontalStack=0;rounded=1;fontSize=14;fontStyle=0;strokeWidth=2;resizeParent=0;resizeLast=1;shadow=0;dashed=0;align=center;fillColor=#d5e8d4;strokeColor=#82b366;" parent="dMr1oW0Q8ULhSIMcVtM5-1" vertex="1">
          <mxGeometry x="598.75" y="910" width="240" height="330" as="geometry" />
        </mxCell>
        <mxCell id="dMr1oW0Q8ULhSIMcVtM5-11" value="+Person_ID (IDENTITY, arbitrary)&#xa;+Name&#xa;+Email&#xa;+Institution_ID&#xa;+AstrologicalSign&#xa;+FavoriteColor&#xa;+blazerID&#xa;+UABMC_ID&#xa;+other stuff all about system access &#xa;     OR Person-as-entity" style="align=left;strokeColor=none;fillColor=none;spacingLeft=4;fontSize=12;verticalAlign=top;resizable=0;rotatable=0;part=1;" parent="dMr1oW0Q8ULhSIMcVtM5-10" vertex="1">
          <mxGeometry y="30" width="240" height="300" as="geometry" />
        </mxCell>
        <mxCell id="dMr1oW0Q8ULhSIMcVtM5-12" style="edgeStyle=orthogonalEdgeStyle;rounded=0;orthogonalLoop=1;jettySize=auto;html=1;exitX=1.005;exitY=0.333;exitDx=0;exitDy=0;startArrow=ERmandOne;startFill=0;endArrow=ERzeroToMany;endFill=0;entryX=0.5;entryY=1;entryDx=0;entryDy=0;endSize=10;startSize=10;exitPerimeter=0;" parent="dMr1oW0Q8ULhSIMcVtM5-1" source="dMr1oW0Q8ULhSIMcVtM5-11" target="dMr1oW0Q8ULhSIMcVtM5-24" edge="1">
          <mxGeometry relative="1" as="geometry">
            <mxPoint x="848.75" y="1110" as="targetPoint" />
            <mxPoint x="1193.75" y="930" as="sourcePoint" />
          </mxGeometry>
        </mxCell>
        <mxCell id="dMr1oW0Q8ULhSIMcVtM5-13" style="edgeStyle=orthogonalEdgeStyle;rounded=0;orthogonalLoop=1;jettySize=auto;html=1;exitX=1;exitY=0.75;exitDx=0;exitDy=0;entryX=1;entryY=0;entryDx=0;entryDy=0;startArrow=ERzeroToMany;startFill=0;endArrow=ERzeroToMany;endFill=0;endSize=10;startSize=10;strokeColor=#00CC00;strokeWidth=2;" parent="dMr1oW0Q8ULhSIMcVtM5-1" source="dMr1oW0Q8ULhSIMcVtM5-15" target="dMr1oW0Q8ULhSIMcVtM5-5" edge="1">
          <mxGeometry relative="1" as="geometry">
            <Array as="points">
              <mxPoint x="1110" y="1635" />
              <mxPoint x="1110" y="190" />
            </Array>
            <mxPoint x="1308.75" y="310" as="targetPoint" />
          </mxGeometry>
        </mxCell>
        <mxCell id="dMr1oW0Q8ULhSIMcVtM5-14" value="Project" style="swimlane;childLayout=stackLayout;horizontal=1;startSize=30;horizontalStack=0;rounded=1;fontSize=14;fontStyle=0;strokeWidth=2;resizeParent=0;resizeLast=1;shadow=0;dashed=0;align=center;fillColor=#f5f5f5;strokeColor=#666666;fontColor=#333333;" parent="dMr1oW0Q8ULhSIMcVtM5-1" vertex="1">
          <mxGeometry x="598.75" y="1470" width="260" height="210" as="geometry" />
        </mxCell>
        <mxCell id="dMr1oW0Q8ULhSIMcVtM5-15" value="+Project_ID&#xa;+Name&#xa;+Description&#xa;+ProjectType" style="align=left;strokeColor=none;fillColor=none;spacingLeft=4;fontSize=12;verticalAlign=top;resizable=0;rotatable=0;part=1;" parent="dMr1oW0Q8ULhSIMcVtM5-14" vertex="1">
          <mxGeometry y="30" width="260" height="180" as="geometry" />
        </mxCell>
        <mxCell id="dMr1oW0Q8ULhSIMcVtM5-16" style="edgeStyle=orthogonalEdgeStyle;rounded=0;orthogonalLoop=1;jettySize=auto;html=1;exitX=0;exitY=0;exitDx=0;exitDy=0;entryX=0.75;entryY=0;entryDx=0;entryDy=0;startArrow=ERzeroToOne;startFill=0;endArrow=ERzeroToMany;endFill=0;strokeWidth=2;endSize=10;startSize=10;strokeColor=#00CC00;" parent="dMr1oW0Q8ULhSIMcVtM5-1" source="dMr1oW0Q8ULhSIMcVtM5-5" target="dMr1oW0Q8ULhSIMcVtM5-2" edge="1">
          <mxGeometry relative="1" as="geometry">
            <Array as="points">
              <mxPoint x="266" y="190" />
            </Array>
          </mxGeometry>
        </mxCell>
        <mxCell id="dMr1oW0Q8ULhSIMcVtM5-17" style="edgeStyle=orthogonalEdgeStyle;rounded=0;orthogonalLoop=1;jettySize=auto;html=1;startArrow=ERzeroToMany;startFill=0;endArrow=ERzeroToOne;endFill=0;entryX=0;entryY=0.75;entryDx=0;entryDy=0;exitX=0.25;exitY=1;exitDx=0;exitDy=0;endSize=10;startSize=10;strokeWidth=2;strokeColor=#00CC00;" parent="dMr1oW0Q8ULhSIMcVtM5-1" source="dMr1oW0Q8ULhSIMcVtM5-3" target="dMr1oW0Q8ULhSIMcVtM5-15" edge="1">
          <mxGeometry relative="1" as="geometry">
            <Array as="points">
              <mxPoint x="129" y="830" />
              <mxPoint x="64" y="830" />
              <mxPoint x="64" y="1635" />
            </Array>
            <mxPoint x="278.75" y="760" as="sourcePoint" />
            <mxPoint x="698.75" y="1550" as="targetPoint" />
          </mxGeometry>
        </mxCell>
        <mxCell id="dMr1oW0Q8ULhSIMcVtM5-18" style="edgeStyle=orthogonalEdgeStyle;rounded=0;orthogonalLoop=1;jettySize=auto;html=1;exitX=0.5;exitY=0;exitDx=0;exitDy=0;startArrow=ERzeroToMany;startFill=0;endArrow=ERoneToMany;endFill=0;entryX=0.5;entryY=1;entryDx=0;entryDy=0;endSize=10;startSize=10;strokeColor=#00CC00;strokeWidth=2;" parent="dMr1oW0Q8ULhSIMcVtM5-1" source="dMr1oW0Q8ULhSIMcVtM5-19" target="dMr1oW0Q8ULhSIMcVtM5-15" edge="1">
          <mxGeometry relative="1" as="geometry">
            <mxPoint x="898.75" y="2160" as="targetPoint" />
          </mxGeometry>
        </mxCell>
        <mxCell id="dMr1oW0Q8ULhSIMcVtM5-19" value="Asset" style="swimlane;childLayout=stackLayout;horizontal=1;startSize=30;horizontalStack=0;rounded=1;fontSize=14;fontStyle=0;strokeWidth=2;resizeParent=0;resizeLast=1;shadow=0;dashed=0;align=center;fillColor=#f5f5f5;strokeColor=#666666;fontColor=#333333;" parent="dMr1oW0Q8ULhSIMcVtM5-1" vertex="1">
          <mxGeometry x="598.75" y="1770" width="260" height="210" as="geometry" />
        </mxCell>
        <mxCell id="dMr1oW0Q8ULhSIMcVtM5-20" value="+Asset_ID&#xa;+Type&#xa;+ContentType&#xa;+Name&#xa;+URL&#xa;+other standard Asset columns" style="align=left;strokeColor=none;fillColor=none;spacingLeft=4;fontSize=12;verticalAlign=top;resizable=0;rotatable=0;part=1;" parent="dMr1oW0Q8ULhSIMcVtM5-19" vertex="1">
          <mxGeometry y="30" width="260" height="180" as="geometry" />
        </mxCell>
        <mxCell id="dMr1oW0Q8ULhSIMcVtM5-21" style="edgeStyle=orthogonalEdgeStyle;rounded=0;orthogonalLoop=1;jettySize=auto;html=1;exitX=1;exitY=0.25;exitDx=0;exitDy=0;entryX=0.75;entryY=1;entryDx=0;entryDy=0;startArrow=ERmandOne;startFill=0;endArrow=ERzeroToMany;endFill=0;endSize=10;startSize=10;strokeColor=#0000FF;strokeWidth=2;" parent="dMr1oW0Q8ULhSIMcVtM5-1" source="dMr1oW0Q8ULhSIMcVtM5-11" target="dMr1oW0Q8ULhSIMcVtM5-59" edge="1">
          <mxGeometry relative="1" as="geometry">
            <Array as="points">
              <mxPoint x="1040" y="1015" />
            </Array>
            <mxPoint x="1158.75" y="62.5" as="targetPoint" />
          </mxGeometry>
        </mxCell>
        <mxCell id="dMr1oW0Q8ULhSIMcVtM5-22" style="edgeStyle=orthogonalEdgeStyle;rounded=0;orthogonalLoop=1;jettySize=auto;html=1;exitX=0;exitY=0.5;exitDx=0;exitDy=0;entryX=1;entryY=0.25;entryDx=0;entryDy=0;startArrow=ERzeroToMany;startFill=0;endArrow=ERzeroToMany;endFill=0;endSize=10;startSize=10;strokeColor=#00CC00;strokeWidth=2;" parent="dMr1oW0Q8ULhSIMcVtM5-1" source="dMr1oW0Q8ULhSIMcVtM5-7" target="dMr1oW0Q8ULhSIMcVtM5-3" edge="1">
          <mxGeometry relative="1" as="geometry">
            <Array as="points">
              <mxPoint x="574" y="515" />
              <mxPoint x="574" y="375" />
            </Array>
            <mxPoint x="378.75" y="516.02" as="sourcePoint" />
          </mxGeometry>
        </mxCell>
        <mxCell id="dMr1oW0Q8ULhSIMcVtM5-23" style="edgeStyle=orthogonalEdgeStyle;rounded=0;orthogonalLoop=1;jettySize=auto;html=1;entryX=0.25;entryY=1;entryDx=0;entryDy=0;startArrow=ERzeroToMany;startFill=0;endArrow=ERmandOne;endFill=0;exitX=1;exitY=0;exitDx=0;exitDy=0;endSize=10;startSize=10;strokeColor=#0000FF;strokeWidth=2;" parent="dMr1oW0Q8ULhSIMcVtM5-1" source="dMr1oW0Q8ULhSIMcVtM5-62" target="dMr1oW0Q8ULhSIMcVtM5-11" edge="1">
          <mxGeometry relative="1" as="geometry">
            <mxPoint x="778.75" y="1560" as="sourcePoint" />
            <Array as="points">
              <mxPoint x="659" y="1360" />
            </Array>
          </mxGeometry>
        </mxCell>
        <mxCell id="dMr1oW0Q8ULhSIMcVtM5-24" value="&lt;font style=&quot;font-size: 16px;&quot;&gt;&lt;b&gt;All Tables/Audit Logs&lt;/b&gt;&lt;/font&gt;&lt;br&gt;(CreatedBy, UpdatedBy, Logins,&amp;nbsp;&lt;br&gt;Downloads, Admin Activity, etc)" style="whiteSpace=wrap;html=1;align=center;" parent="dMr1oW0Q8ULhSIMcVtM5-1" vertex="1">
          <mxGeometry x="1160" y="895" width="180" height="90" as="geometry" />
        </mxCell>
        <mxCell id="dMr1oW0Q8ULhSIMcVtM5-25" style="edgeStyle=orthogonalEdgeStyle;rounded=0;orthogonalLoop=1;jettySize=auto;html=1;entryX=1;entryY=0.75;entryDx=0;entryDy=0;startArrow=ERzeroToMany;startFill=0;endArrow=ERzeroToMany;endFill=0;exitX=0.615;exitY=0.005;exitDx=0;exitDy=0;exitPerimeter=0;endSize=10;startSize=10;strokeColor=#00CC00;strokeWidth=2;" parent="dMr1oW0Q8ULhSIMcVtM5-1" source="dMr1oW0Q8ULhSIMcVtM5-14" target="dMr1oW0Q8ULhSIMcVtM5-7" edge="1">
          <mxGeometry relative="1" as="geometry">
            <Array as="points">
              <mxPoint x="759" y="1300" />
              <mxPoint x="1080" y="1300" />
              <mxPoint x="1080" y="558" />
            </Array>
            <mxPoint x="888.75" y="1560" as="sourcePoint" />
            <mxPoint x="1028.75" y="752.5" as="targetPoint" />
          </mxGeometry>
        </mxCell>
        <mxCell id="dMr1oW0Q8ULhSIMcVtM5-26" value="ClinicalDataSet" style="swimlane;childLayout=stackLayout;horizontal=1;startSize=30;horizontalStack=0;rounded=1;fontSize=14;fontStyle=0;strokeWidth=2;resizeParent=0;resizeLast=1;shadow=0;dashed=0;align=center;fillColor=#ffe6cc;strokeColor=#d79b00;" parent="dMr1oW0Q8ULhSIMcVtM5-1" vertex="1">
          <mxGeometry x="188.75" y="610" width="200" height="160" as="geometry" />
        </mxCell>
        <mxCell id="dMr1oW0Q8ULhSIMcVtM5-27" value="+ClinicalDataSet_ID&#xa;+DataRequest_ID&#xa;+FileName&#xa;+ContentType&#xa;+Description&#xa;+DataSetType (PHI, LDS, etc)&#xa;+IsFinalDeliverable&#xa;+HasBeenReviewed" style="align=left;strokeColor=none;fillColor=none;spacingLeft=4;fontSize=12;verticalAlign=top;resizable=0;rotatable=0;part=1;" parent="dMr1oW0Q8ULhSIMcVtM5-26" vertex="1">
          <mxGeometry y="30" width="200" height="130" as="geometry" />
        </mxCell>
        <mxCell id="dMr1oW0Q8ULhSIMcVtM5-28" style="edgeStyle=orthogonalEdgeStyle;rounded=0;orthogonalLoop=1;jettySize=auto;html=1;entryX=0.5;entryY=0;entryDx=0;entryDy=0;startArrow=ERzeroToOne;startFill=0;endArrow=ERzeroToMany;endFill=0;endSize=10;startSize=10;exitX=0.576;exitY=0.995;exitDx=0;exitDy=0;exitPerimeter=0;" parent="dMr1oW0Q8ULhSIMcVtM5-1" source="dMr1oW0Q8ULhSIMcVtM5-3" target="dMr1oW0Q8ULhSIMcVtM5-26" edge="1">
          <mxGeometry relative="1" as="geometry" />
        </mxCell>
        <mxCell id="dMr1oW0Q8ULhSIMcVtM5-29" value="EventLog" style="swimlane;childLayout=stackLayout;horizontal=1;startSize=30;horizontalStack=0;rounded=1;fontSize=14;fontStyle=0;strokeWidth=2;resizeParent=0;resizeLast=1;shadow=0;dashed=0;align=center;fillColor=#fff2cc;strokeColor=#d6b656;" parent="dMr1oW0Q8ULhSIMcVtM5-1" vertex="1">
          <mxGeometry x="73.75" y="1700" width="160" height="120" as="geometry" />
        </mxCell>
        <mxCell id="dMr1oW0Q8ULhSIMcVtM5-30" value="+EventID&#xa;+SourceModule_ID&#xa;+Message&#xa;+StackTrace&#xa;+EventDate" style="align=left;strokeColor=none;fillColor=none;spacingLeft=4;fontSize=12;verticalAlign=top;resizable=0;rotatable=0;part=1;" parent="dMr1oW0Q8ULhSIMcVtM5-29" vertex="1">
          <mxGeometry y="30" width="160" height="90" as="geometry" />
        </mxCell>
        <mxCell id="dMr1oW0Q8ULhSIMcVtM5-31" value="AppSettings" style="swimlane;childLayout=stackLayout;horizontal=1;startSize=30;horizontalStack=0;rounded=1;fontSize=14;fontStyle=0;strokeWidth=2;resizeParent=0;resizeLast=1;shadow=0;dashed=0;align=center;fillColor=#fff2cc;strokeColor=#d6b656;" parent="dMr1oW0Q8ULhSIMcVtM5-1" vertex="1">
          <mxGeometry x="73.75" y="1870" width="160" height="120" as="geometry" />
        </mxCell>
        <mxCell id="dMr1oW0Q8ULhSIMcVtM5-32" value="+AppSettingID&#xa;+Name&#xa;+Value" style="align=left;strokeColor=none;fillColor=none;spacingLeft=4;fontSize=12;verticalAlign=top;resizable=0;rotatable=0;part=1;" parent="dMr1oW0Q8ULhSIMcVtM5-31" vertex="1">
          <mxGeometry y="30" width="160" height="90" as="geometry" />
        </mxCell>
        <mxCell id="dMr1oW0Q8ULhSIMcVtM5-33" value="Institution" style="swimlane;childLayout=stackLayout;horizontal=1;startSize=30;horizontalStack=0;rounded=1;fontSize=14;fontStyle=0;strokeWidth=2;resizeParent=0;resizeLast=1;shadow=0;dashed=0;align=center;fillColor=#d5e8d4;strokeColor=#82b366;" parent="dMr1oW0Q8ULhSIMcVtM5-1" vertex="1">
          <mxGeometry x="140" y="1210" width="160" height="120" as="geometry" />
        </mxCell>
        <mxCell id="dMr1oW0Q8ULhSIMcVtM5-34" value="+Institution_ID&#xa;+InstitutionName" style="align=left;strokeColor=none;fillColor=none;spacingLeft=4;fontSize=12;verticalAlign=top;resizable=0;rotatable=0;part=1;" parent="dMr1oW0Q8ULhSIMcVtM5-33" vertex="1">
          <mxGeometry y="30" width="160" height="90" as="geometry" />
        </mxCell>
        <mxCell id="dMr1oW0Q8ULhSIMcVtM5-35" style="edgeStyle=orthogonalEdgeStyle;rounded=0;orthogonalLoop=1;jettySize=auto;html=1;exitX=-0.016;exitY=0.882;exitDx=0;exitDy=0;entryX=1.006;entryY=0.339;entryDx=0;entryDy=0;entryPerimeter=0;endArrow=ERzeroToOne;endFill=0;startArrow=ERzeroToMany;startFill=0;endSize=8;startSize=8;exitPerimeter=0;" parent="dMr1oW0Q8ULhSIMcVtM5-1" source="dMr1oW0Q8ULhSIMcVtM5-11" target="dMr1oW0Q8ULhSIMcVtM5-34" edge="1">
          <mxGeometry relative="1" as="geometry">
            <mxPoint x="353.75" y="1222.5" as="sourcePoint" />
          </mxGeometry>
        </mxCell>
        <mxCell id="dMr1oW0Q8ULhSIMcVtM5-36" value="Training" style="swimlane;childLayout=stackLayout;horizontal=1;startSize=30;horizontalStack=0;rounded=1;fontSize=14;fontStyle=0;strokeWidth=2;resizeParent=0;resizeLast=1;shadow=0;dashed=0;align=center;fillColor=#d5e8d4;strokeColor=#82b366;" parent="dMr1oW0Q8ULhSIMcVtM5-1" vertex="1">
          <mxGeometry x="280" y="865" width="160" height="120" as="geometry" />
        </mxCell>
        <mxCell id="dMr1oW0Q8ULhSIMcVtM5-37" value="+Training_ID&#xa;+Person_ID&#xa;+TrainingName" style="align=left;strokeColor=none;fillColor=none;spacingLeft=4;fontSize=12;verticalAlign=top;resizable=0;rotatable=0;part=1;" parent="dMr1oW0Q8ULhSIMcVtM5-36" vertex="1">
          <mxGeometry y="30" width="160" height="90" as="geometry" />
        </mxCell>
        <mxCell id="dMr1oW0Q8ULhSIMcVtM5-38" style="edgeStyle=orthogonalEdgeStyle;rounded=0;orthogonalLoop=1;jettySize=auto;html=1;exitX=1;exitY=0.25;exitDx=0;exitDy=0;entryX=-0.005;entryY=0.173;entryDx=0;entryDy=0;entryPerimeter=0;startArrow=ERzeroToMany;startFill=0;endArrow=ERmandOne;endFill=0;endSize=10;startSize=10;" parent="dMr1oW0Q8ULhSIMcVtM5-1" source="dMr1oW0Q8ULhSIMcVtM5-37" target="dMr1oW0Q8ULhSIMcVtM5-11" edge="1">
          <mxGeometry relative="1" as="geometry">
            <Array as="points">
              <mxPoint x="520" y="918" />
              <mxPoint x="520" y="992" />
            </Array>
          </mxGeometry>
        </mxCell>
        <mxCell id="dMr1oW0Q8ULhSIMcVtM5-39" style="edgeStyle=orthogonalEdgeStyle;rounded=0;orthogonalLoop=1;jettySize=auto;html=1;entryX=-0.006;entryY=0.322;entryDx=0;entryDy=0;entryPerimeter=0;startArrow=ERzeroToMany;startFill=0;endArrow=ERmandOne;endFill=0;exitX=1;exitY=0.25;exitDx=0;exitDy=0;endSize=8;startSize=8;" parent="dMr1oW0Q8ULhSIMcVtM5-1" source="dMr1oW0Q8ULhSIMcVtM5-41" target="dMr1oW0Q8ULhSIMcVtM5-11" edge="1">
          <mxGeometry relative="1" as="geometry">
            <mxPoint x="523.75" y="1040" as="sourcePoint" />
            <Array as="points">
              <mxPoint x="540" y="1085" />
              <mxPoint x="540" y="1037" />
            </Array>
          </mxGeometry>
        </mxCell>
        <mxCell id="dMr1oW0Q8ULhSIMcVtM5-40" value="RelatedSystemInfo" style="swimlane;childLayout=stackLayout;horizontal=1;startSize=30;horizontalStack=0;rounded=1;fontSize=14;fontStyle=0;strokeWidth=2;resizeParent=0;resizeLast=1;shadow=0;dashed=0;align=center;fillColor=#d5e8d4;strokeColor=#82b366;" parent="dMr1oW0Q8ULhSIMcVtM5-1" vertex="1">
          <mxGeometry x="280" y="1030" width="210" height="130" as="geometry" />
        </mxCell>
        <mxCell id="dMr1oW0Q8ULhSIMcVtM5-41" value="+RelatedSystemInfo_ID&#xa;+Person_ID&#xa;+RelatedSystemName&#xa;+RelatedSystem_ID&#xa;+Other important info about &#xa;   that Person&#39;s related records." style="align=left;strokeColor=none;fillColor=none;spacingLeft=4;fontSize=12;verticalAlign=top;resizable=0;rotatable=0;part=1;" parent="dMr1oW0Q8ULhSIMcVtM5-40" vertex="1">
          <mxGeometry y="30" width="210" height="100" as="geometry" />
        </mxCell>
        <mxCell id="dMr1oW0Q8ULhSIMcVtM5-42" value="Roles" style="swimlane;childLayout=stackLayout;horizontal=1;startSize=30;horizontalStack=0;rounded=1;fontSize=14;fontStyle=0;strokeWidth=2;resizeParent=0;resizeLast=1;shadow=0;dashed=0;align=center;fillColor=#dae8fc;strokeColor=#6c8ebf;" parent="dMr1oW0Q8ULhSIMcVtM5-1" vertex="1">
          <mxGeometry x="1408.75" y="1030" width="240" height="210" as="geometry" />
        </mxCell>
        <mxCell id="dMr1oW0Q8ULhSIMcVtM5-43" value="+Role_D&#xa;+Name&#xa;+Description&#xa;+IsCustomRole&#xa;+IsEntityRole&#xa;" style="align=left;strokeColor=none;fillColor=none;spacingLeft=4;fontSize=12;verticalAlign=top;resizable=0;rotatable=0;part=1;" parent="dMr1oW0Q8ULhSIMcVtM5-42" vertex="1">
          <mxGeometry y="30" width="240" height="180" as="geometry" />
        </mxCell>
        <mxCell id="dMr1oW0Q8ULhSIMcVtM5-44" style="edgeStyle=orthogonalEdgeStyle;rounded=0;orthogonalLoop=1;jettySize=auto;html=1;entryX=0;entryY=0.25;entryDx=0;entryDy=0;startArrow=ERzeroToMany;startFill=0;endArrow=ERmandOne;endFill=0;endSize=10;startSize=10;strokeColor=#FF0000;strokeWidth=2;" parent="dMr1oW0Q8ULhSIMcVtM5-1" target="dMr1oW0Q8ULhSIMcVtM5-42" edge="1">
          <mxGeometry relative="1" as="geometry">
            <mxPoint x="840" y="1083" as="sourcePoint" />
          </mxGeometry>
        </mxCell>
        <mxCell id="dMr1oW0Q8ULhSIMcVtM5-45" value="Permissions" style="swimlane;childLayout=stackLayout;horizontal=1;startSize=30;horizontalStack=0;rounded=1;fontSize=14;fontStyle=0;strokeWidth=2;resizeParent=0;resizeLast=1;shadow=0;dashed=0;align=center;fillColor=#dae8fc;strokeColor=#6c8ebf;" parent="dMr1oW0Q8ULhSIMcVtM5-1" vertex="1">
          <mxGeometry x="1418.75" y="1340" width="220" height="150" as="geometry" />
        </mxCell>
        <mxCell id="dMr1oW0Q8ULhSIMcVtM5-46" value="+Permission_ID&#xa;+Name&#xa;+Description&#xa;+IsEntityPermission" style="align=left;strokeColor=none;fillColor=none;spacingLeft=4;fontSize=12;verticalAlign=top;resizable=0;rotatable=0;part=1;" parent="dMr1oW0Q8ULhSIMcVtM5-45" vertex="1">
          <mxGeometry y="30" width="220" height="120" as="geometry" />
        </mxCell>
        <mxCell id="dMr1oW0Q8ULhSIMcVtM5-47" style="edgeStyle=orthogonalEdgeStyle;rounded=0;orthogonalLoop=1;jettySize=auto;html=1;exitX=0.5;exitY=1;exitDx=0;exitDy=0;entryX=0.5;entryY=0;entryDx=0;entryDy=0;startArrow=ERzeroToMany;startFill=0;endArrow=ERzeroToMany;endFill=0;endSize=10;startSize=10;" parent="dMr1oW0Q8ULhSIMcVtM5-1" source="dMr1oW0Q8ULhSIMcVtM5-43" target="dMr1oW0Q8ULhSIMcVtM5-45" edge="1">
          <mxGeometry relative="1" as="geometry" />
        </mxCell>
        <mxCell id="dMr1oW0Q8ULhSIMcVtM5-48" value="&lt;h1&gt;DataLens V2 Entity-Relationship Diagram Starting Point&lt;/h1&gt;&lt;p&gt;Authors: Nick Timkovich, Brian Harmon, Matt Wyatt, Abakash Samal, Brandon Sharp, Adarsh Khare, Heena Chitkara&lt;br&gt;Last Updated: Jan 4, 2023&lt;/p&gt;" style="text;html=1;strokeColor=none;fillColor=none;spacing=5;spacingTop=-20;whiteSpace=wrap;overflow=hidden;rounded=0;fontSize=16;" parent="dMr1oW0Q8ULhSIMcVtM5-1" vertex="1">
          <mxGeometry x="73.75" y="30" width="876.25" height="120" as="geometry" />
        </mxCell>
        <mxCell id="dMr1oW0Q8ULhSIMcVtM5-49" value="&lt;ul&gt;&lt;li&gt;This is an abstract ERD, and does not reflect full table inventory for CRIF2.&amp;nbsp; Associated documentation will be available in the future listing all tables and attributes.&lt;/li&gt;&lt;li&gt;If not shown, Many-to-Many relationships have an implied JOIN table between the entities.&lt;/li&gt;&lt;li&gt;Color Coding represents general entity collections for functional purposes.&lt;/li&gt;&lt;li&gt;Lookup and other tables are omitted for brevity&lt;/li&gt;&lt;li&gt;This is a Starting Point and SUBJECT to change.&lt;/li&gt;&lt;/ul&gt;" style="text;html=1;strokeColor=none;fillColor=none;align=left;verticalAlign=top;whiteSpace=wrap;rounded=0;fontSize=16;" parent="dMr1oW0Q8ULhSIMcVtM5-1" vertex="1">
          <mxGeometry x="1140" width="530" height="210" as="geometry" />
        </mxCell>
        <mxCell id="dMr1oW0Q8ULhSIMcVtM5-50" style="edgeStyle=orthogonalEdgeStyle;rounded=0;orthogonalLoop=1;jettySize=auto;html=1;exitX=0.5;exitY=0;exitDx=0;exitDy=0;startArrow=ERzeroToMany;startFill=0;entryX=0.385;entryY=1.005;entryDx=0;entryDy=0;entryPerimeter=0;endArrow=ERmandOne;endFill=0;endSize=10;startSize=10;" parent="dMr1oW0Q8ULhSIMcVtM5-1" source="dMr1oW0Q8ULhSIMcVtM5-51" target="dMr1oW0Q8ULhSIMcVtM5-3" edge="1">
          <mxGeometry relative="1" as="geometry" />
        </mxCell>
        <mxCell id="dMr1oW0Q8ULhSIMcVtM5-51" value="Attachment" style="swimlane;childLayout=stackLayout;horizontal=1;startSize=30;horizontalStack=0;rounded=1;fontSize=14;fontStyle=0;strokeWidth=2;resizeParent=0;resizeLast=1;shadow=0;dashed=0;align=center;fillColor=#ffe6cc;strokeColor=#d79b00;" parent="dMr1oW0Q8ULhSIMcVtM5-1" vertex="1">
          <mxGeometry x="90" y="860" width="160" height="160" as="geometry" />
        </mxCell>
        <mxCell id="dMr1oW0Q8ULhSIMcVtM5-52" value="+Attachment_ID&#xa;+DataRequest_ID&#xa;+DisplayNameforUI&#xa;+FileName&#xa;+ContentType&#xa;+" style="align=left;strokeColor=none;fillColor=none;spacingLeft=4;fontSize=12;verticalAlign=top;resizable=0;rotatable=0;part=1;" parent="dMr1oW0Q8ULhSIMcVtM5-51" vertex="1">
          <mxGeometry y="30" width="160" height="130" as="geometry" />
        </mxCell>
        <mxCell id="dMr1oW0Q8ULhSIMcVtM5-53" value="ProjectType indicates a &quot;My Stuff&quot; Project or other types (&quot;Research&quot;, &quot;Collaborative&quot;, etc].&amp;nbsp; &quot;My Stuff&quot; projects are used to manage a Person&#39;s Assets." style="text;html=1;strokeColor=none;fillColor=none;align=left;verticalAlign=top;whiteSpace=wrap;rounded=0;" parent="dMr1oW0Q8ULhSIMcVtM5-1" vertex="1">
          <mxGeometry x="880" y="1470" width="190" height="140" as="geometry" />
        </mxCell>
        <mxCell id="dMr1oW0Q8ULhSIMcVtM5-54" value="The Blue relationship lines indicate that the Assignment (&quot;Association&quot;) table will contain information about the Person&#39;s role and/or level of access to specific DRs, Protocols, Cohorts, or Projects.&lt;br&gt;&lt;br&gt;Examples:&lt;br&gt;- Homer can access Protocol #IRB-00090 because he&#39;s assigned to be the &quot;OWNER&quot; for that Protocol.&lt;br&gt;- Marge can edit DR#456-J7 because she&#39;s assigned to be the &quot;CONTRIBUTOR&quot; for that DR.&lt;br&gt;&lt;br&gt;This level of permission control is entity-level permissions, as compared to system-level permissions which are tied directly to the Person." style="text;html=1;strokeColor=none;fillColor=none;align=left;verticalAlign=top;whiteSpace=wrap;rounded=0;fontColor=#0000FF;fontStyle=1;horizontal=1;" parent="dMr1oW0Q8ULhSIMcVtM5-1" vertex="1">
          <mxGeometry x="1170" y="210" width="500" height="190" as="geometry" />
        </mxCell>
        <mxCell id="dMr1oW0Q8ULhSIMcVtM5-55" value="Roles and Permissions that are tied directly to PERSON will control system-level permissions (as compared to entity-level permissions) for a role in the application.&lt;br&gt;&lt;br&gt;Examples:&amp;nbsp;&lt;br&gt;- Requester can Access Data Requests module.&lt;br&gt;- Requester can create a new Data Request.&lt;br&gt;- Admin can manage User Accounts." style="text;html=1;strokeColor=none;fillColor=none;align=left;verticalAlign=top;whiteSpace=wrap;rounded=0;fontColor=#FF0000;" parent="dMr1oW0Q8ULhSIMcVtM5-1" vertex="1">
          <mxGeometry x="1130" y="1105" width="260" height="135" as="geometry" />
        </mxCell>
        <mxCell id="dMr1oW0Q8ULhSIMcVtM5-56" value="&lt;div style=&quot;font-family: Menlo, Monaco, &amp;quot;Courier New&amp;quot;, monospace; line-height: 18px;&quot;&gt;&lt;div style=&quot;&quot;&gt;ENTITY-LEVEL ROLE EXAMPLES:&lt;/div&gt;&lt;div style=&quot;&quot;&gt;Person to Data Request Role Types&lt;/div&gt;&lt;br&gt;&lt;div style=&quot;&quot;&gt;- Person is OWNER of DataRequest (pre-defined)&lt;/div&gt;&lt;div style=&quot;&quot;&gt;- Person is CONTRIBUTOR of DataRequest&amp;nbsp;&lt;span style=&quot;background-color: initial;&quot;&gt;(pre-defined)&lt;/span&gt;&lt;/div&gt;&lt;div style=&quot;&quot;&gt;- Person is PRINCIPAL REQUESTER of DataRequest (custom)&lt;/div&gt;&lt;div style=&quot;&quot;&gt;- Person is REQUEST MANAGER of DataRequest&amp;nbsp;&lt;span style=&quot;background-color: initial;&quot;&gt;(custom)&lt;/span&gt;&lt;/div&gt;&lt;div style=&quot;&quot;&gt;- Person is RESEARCH ASSISTANT of DataRequest&amp;nbsp;&lt;span style=&quot;background-color: initial;&quot;&gt;(custom)&lt;/span&gt;&lt;/div&gt;&lt;div style=&quot;&quot;&gt;- Person is DATA ANALYST of DataRequest&amp;nbsp;&lt;span style=&quot;background-color: initial;&quot;&gt;(custom)&lt;/span&gt;&lt;/div&gt;&lt;div style=&quot;&quot;&gt;- Person is BIOSTATISTICIAN of DataRequest&amp;nbsp;&lt;span style=&quot;background-color: initial;&quot;&gt;(custom)&lt;/span&gt;&lt;/div&gt;&lt;br&gt;&lt;div style=&quot;&quot;&gt;&lt;span style=&quot;background-color: initial;&quot;&gt;Roles can be &quot;pre-defined&quot;, like &quot;OWNER&quot; or &quot;&lt;/span&gt;CONTRIBUTOR&lt;span style=&quot;background-color: initial;&quot;&gt;&quot;; or can be &quot;custom&quot;, such as &quot;Research Project X&quot; has &quot;PROJECT MANAGER&quot;, or &quot;CO-PI&quot;, that may or may not have any permissions to that specific project.&lt;/span&gt;&lt;br&gt;&lt;/div&gt;&lt;/div&gt;" style="text;html=1;strokeColor=none;fillColor=none;align=left;verticalAlign=top;whiteSpace=wrap;rounded=0;" parent="dMr1oW0Q8ULhSIMcVtM5-1" vertex="1">
          <mxGeometry x="1190" y="1530" width="460" height="400" as="geometry" />
        </mxCell>
        <mxCell id="dMr1oW0Q8ULhSIMcVtM5-57" style="edgeStyle=orthogonalEdgeStyle;rounded=0;orthogonalLoop=1;jettySize=auto;html=1;exitX=0.5;exitY=0;exitDx=0;exitDy=0;entryX=1.01;entryY=0.384;entryDx=0;entryDy=0;entryPerimeter=0;startArrow=ERoneToMany;startFill=0;endArrow=ERmandOne;endFill=0;strokeColor=#3333FF;strokeWidth=2;endSize=10;startSize=10;" parent="dMr1oW0Q8ULhSIMcVtM5-1" source="dMr1oW0Q8ULhSIMcVtM5-58" target="dMr1oW0Q8ULhSIMcVtM5-5" edge="1">
          <mxGeometry relative="1" as="geometry">
            <Array as="points">
              <mxPoint x="1000" y="251" />
            </Array>
          </mxGeometry>
        </mxCell>
        <mxCell id="dMr1oW0Q8ULhSIMcVtM5-58" value="Protocol_Assignment" style="swimlane;childLayout=stackLayout;horizontal=1;startSize=30;horizontalStack=0;rounded=1;fontSize=14;fontStyle=0;strokeWidth=2;resizeParent=0;resizeLast=1;shadow=0;dashed=0;align=center;fillColor=#dae8fc;strokeColor=#6c8ebf;" parent="dMr1oW0Q8ULhSIMcVtM5-1" vertex="1">
          <mxGeometry x="920" y="300" width="160" height="200" as="geometry" />
        </mxCell>
        <mxCell id="dMr1oW0Q8ULhSIMcVtM5-59" value="+Protocol_ID&#xa;+Person_ID&#xa;+Role_ID&#xa;+other info about a specific&#xa;  Person assigned to a &#xa;  specific Protocol" style="align=left;strokeColor=none;fillColor=none;spacingLeft=4;fontSize=12;verticalAlign=top;resizable=0;rotatable=0;part=1;" parent="dMr1oW0Q8ULhSIMcVtM5-58" vertex="1">
          <mxGeometry y="30" width="160" height="170" as="geometry" />
        </mxCell>
        <mxCell id="dMr1oW0Q8ULhSIMcVtM5-60" style="edgeStyle=orthogonalEdgeStyle;rounded=0;orthogonalLoop=1;jettySize=auto;html=1;exitX=1;exitY=0.5;exitDx=0;exitDy=0;entryX=0.75;entryY=0;entryDx=0;entryDy=0;strokeColor=#3333FF;strokeWidth=2;startArrow=ERzeroToMany;startFill=0;endArrow=ERmandOne;endFill=0;startSize=10;endSize=10;" parent="dMr1oW0Q8ULhSIMcVtM5-1" source="dMr1oW0Q8ULhSIMcVtM5-59" target="dMr1oW0Q8ULhSIMcVtM5-42" edge="1">
          <mxGeometry relative="1" as="geometry" />
        </mxCell>
        <mxCell id="dMr1oW0Q8ULhSIMcVtM5-61" value="Project_Assignment" style="swimlane;childLayout=stackLayout;horizontal=1;startSize=30;horizontalStack=0;rounded=1;fontSize=14;fontStyle=0;strokeWidth=2;resizeParent=0;resizeLast=1;shadow=0;dashed=0;align=center;fillColor=#dae8fc;strokeColor=#6c8ebf;" parent="dMr1oW0Q8ULhSIMcVtM5-1" vertex="1">
          <mxGeometry x="360" y="1330" width="160" height="200" as="geometry" />
        </mxCell>
        <mxCell id="dMr1oW0Q8ULhSIMcVtM5-62" value="+Project_ID&#xa;+Person_ID&#xa;+Role_ID&#xa;+other info about a specific&#xa;  Person assigned to a &#xa;  specific Project" style="align=left;strokeColor=none;fillColor=none;spacingLeft=4;fontSize=12;verticalAlign=top;resizable=0;rotatable=0;part=1;" parent="dMr1oW0Q8ULhSIMcVtM5-61" vertex="1">
          <mxGeometry y="30" width="160" height="170" as="geometry" />
        </mxCell>
        <mxCell id="dMr1oW0Q8ULhSIMcVtM5-63" style="edgeStyle=orthogonalEdgeStyle;rounded=0;orthogonalLoop=1;jettySize=auto;html=1;exitX=1;exitY=0.25;exitDx=0;exitDy=0;entryX=0.25;entryY=0;entryDx=0;entryDy=0;strokeColor=#3333FF;strokeWidth=2;startArrow=ERzeroToMany;startFill=0;endArrow=ERmandOne;endFill=0;startSize=10;endSize=10;" parent="dMr1oW0Q8ULhSIMcVtM5-1" source="dMr1oW0Q8ULhSIMcVtM5-62" target="dMr1oW0Q8ULhSIMcVtM5-14" edge="1">
          <mxGeometry relative="1" as="geometry" />
        </mxCell>
        <mxCell id="dMr1oW0Q8ULhSIMcVtM5-64" style="edgeStyle=orthogonalEdgeStyle;rounded=0;orthogonalLoop=1;jettySize=auto;html=1;exitX=0.25;exitY=1;exitDx=0;exitDy=0;entryX=1.006;entryY=0.137;entryDx=0;entryDy=0;entryPerimeter=0;strokeColor=#3333FF;strokeWidth=2;startArrow=ERmandOne;startFill=0;endArrow=ERzeroToMany;endFill=0;startSize=10;endSize=10;" parent="dMr1oW0Q8ULhSIMcVtM5-1" source="dMr1oW0Q8ULhSIMcVtM5-43" target="dMr1oW0Q8ULhSIMcVtM5-62" edge="1">
          <mxGeometry relative="1" as="geometry">
            <Array as="points">
              <mxPoint x="1469" y="1290" />
              <mxPoint x="1260" y="1290" />
              <mxPoint x="1260" y="1383" />
            </Array>
          </mxGeometry>
        </mxCell>
        <mxCell id="dMr1oW0Q8ULhSIMcVtM5-65" value="Cohort_Assignment" style="swimlane;childLayout=stackLayout;horizontal=1;startSize=30;horizontalStack=0;rounded=1;fontSize=14;fontStyle=0;strokeWidth=2;resizeParent=0;resizeLast=1;shadow=0;dashed=0;align=center;strokeColor=#6c8ebf;fillColor=#dae8fc;" parent="dMr1oW0Q8ULhSIMcVtM5-1" vertex="1">
          <mxGeometry x="810" y="680" width="160" height="200" as="geometry" />
        </mxCell>
        <mxCell id="dMr1oW0Q8ULhSIMcVtM5-66" value="+Cohort_ID&#xa;+Person_ID&#xa;+Role_ID&#xa;+other info about a specific&#xa;  Person assigned to a &#xa;  specific Cohort" style="align=left;strokeColor=none;fillColor=none;spacingLeft=4;fontSize=12;verticalAlign=top;resizable=0;rotatable=0;part=1;" parent="dMr1oW0Q8ULhSIMcVtM5-65" vertex="1">
          <mxGeometry y="30" width="160" height="170" as="geometry" />
        </mxCell>
        <mxCell id="dMr1oW0Q8ULhSIMcVtM5-67" style="edgeStyle=orthogonalEdgeStyle;rounded=0;orthogonalLoop=1;jettySize=auto;html=1;exitX=0;exitY=0.5;exitDx=0;exitDy=0;entryX=0.706;entryY=0.001;entryDx=0;entryDy=0;entryPerimeter=0;strokeColor=#3333FF;strokeWidth=2;startArrow=ERzeroToMany;startFill=0;endArrow=ERmandOne;endFill=0;startSize=10;endSize=10;" parent="dMr1oW0Q8ULhSIMcVtM5-1" source="dMr1oW0Q8ULhSIMcVtM5-66" target="dMr1oW0Q8ULhSIMcVtM5-10" edge="1">
          <mxGeometry relative="1" as="geometry" />
        </mxCell>
        <mxCell id="dMr1oW0Q8ULhSIMcVtM5-68" style="edgeStyle=orthogonalEdgeStyle;rounded=0;orthogonalLoop=1;jettySize=auto;html=1;exitX=1;exitY=0.5;exitDx=0;exitDy=0;entryX=0.25;entryY=0;entryDx=0;entryDy=0;strokeColor=#3333FF;strokeWidth=2;startArrow=ERzeroToMany;startFill=0;endArrow=ERmandOne;endFill=0;startSize=10;endSize=10;" parent="dMr1oW0Q8ULhSIMcVtM5-1" source="dMr1oW0Q8ULhSIMcVtM5-66" target="dMr1oW0Q8ULhSIMcVtM5-42" edge="1">
          <mxGeometry relative="1" as="geometry" />
        </mxCell>
        <mxCell id="dMr1oW0Q8ULhSIMcVtM5-69" value="DataRequest_Assignment" style="swimlane;childLayout=stackLayout;horizontal=1;startSize=30;horizontalStack=0;rounded=1;fontSize=14;fontStyle=0;strokeWidth=2;resizeParent=0;resizeLast=1;shadow=0;dashed=0;align=center;strokeColor=#6c8ebf;fillColor=#dae8fc;" parent="dMr1oW0Q8ULhSIMcVtM5-1" vertex="1">
          <mxGeometry x="410" y="620" width="200" height="200" as="geometry" />
        </mxCell>
        <mxCell id="dMr1oW0Q8ULhSIMcVtM5-70" value="+DataRequest_ID&#xa;+Person_ID&#xa;+Role_ID&#xa;+other info about a specific&#xa;  Person assigned to a &#xa;  specific Data Request" style="align=left;strokeColor=none;fillColor=none;spacingLeft=4;fontSize=12;verticalAlign=top;resizable=0;rotatable=0;part=1;" parent="dMr1oW0Q8ULhSIMcVtM5-69" vertex="1">
          <mxGeometry y="30" width="200" height="170" as="geometry" />
        </mxCell>
        <mxCell id="dMr1oW0Q8ULhSIMcVtM5-71" style="edgeStyle=orthogonalEdgeStyle;rounded=0;orthogonalLoop=1;jettySize=auto;html=1;exitX=1;exitY=0.75;exitDx=0;exitDy=0;entryX=0.25;entryY=0;entryDx=0;entryDy=0;strokeColor=#3333FF;strokeWidth=2;fontColor=#FFFFFF;startArrow=ERzeroToMany;startFill=0;endArrow=ERmandOne;endFill=0;startSize=10;endSize=10;" parent="dMr1oW0Q8ULhSIMcVtM5-1" source="dMr1oW0Q8ULhSIMcVtM5-70" target="dMr1oW0Q8ULhSIMcVtM5-10" edge="1">
          <mxGeometry relative="1" as="geometry" />
        </mxCell>
        <mxCell id="dMr1oW0Q8ULhSIMcVtM5-72" style="edgeStyle=orthogonalEdgeStyle;rounded=0;orthogonalLoop=1;jettySize=auto;html=1;exitX=1;exitY=0;exitDx=0;exitDy=0;entryX=0.5;entryY=0;entryDx=0;entryDy=0;strokeColor=#3333FF;strokeWidth=2;fontColor=#FFFFFF;startArrow=ERzeroToMany;startFill=0;endArrow=ERmandOne;endFill=0;startSize=10;endSize=10;" parent="dMr1oW0Q8ULhSIMcVtM5-1" source="dMr1oW0Q8ULhSIMcVtM5-70" target="dMr1oW0Q8ULhSIMcVtM5-42" edge="1">
          <mxGeometry relative="1" as="geometry">
            <Array as="points">
              <mxPoint x="1529" y="650" />
            </Array>
          </mxGeometry>
        </mxCell>
        <mxCell id="CvoWsCr7HLLSvaw1Cl41-0" value="The Green relationship lines indicate connections between the major functional entities: DataRequest, Cohort, Protocol, Project, and Asset.&amp;nbsp; Implied JOIN tables may or may not have additional columns.&lt;br&gt;&lt;br&gt;The lines are green to enhance readability of this diagram." style="text;html=1;strokeColor=none;fillColor=none;align=left;verticalAlign=top;whiteSpace=wrap;rounded=0;fontColor=#00CC00;fontStyle=1" parent="dMr1oW0Q8ULhSIMcVtM5-1" vertex="1">
          <mxGeometry x="1170" y="470" width="320" height="130" as="geometry" />
        </mxCell>
      </root>
    </mxGraphModel>
  </diagram>
  <diagram name="Copy of Person Role Permission" id="av36TNtCtrBfeq7Tgzgo">
    <mxGraphModel dx="1434" dy="764" grid="1" gridSize="10" guides="1" tooltips="1" connect="1" arrows="1" fold="1" page="1" pageScale="1" pageWidth="850" pageHeight="1100" math="0" shadow="0">
      <root>
        <mxCell id="Ia4MfOMU2E9hq6ZNjD73-0" />
        <mxCell id="Ia4MfOMU2E9hq6ZNjD73-1" parent="Ia4MfOMU2E9hq6ZNjD73-0" />
        <mxCell id="Ia4MfOMU2E9hq6ZNjD73-2" value="DataRequest" style="swimlane;childLayout=stackLayout;horizontal=1;startSize=30;horizontalStack=0;rounded=1;fontSize=14;fontStyle=0;strokeWidth=2;resizeParent=0;resizeLast=1;shadow=0;dashed=0;align=center;fillColor=#ffe6cc;strokeColor=#d79b00;" parent="Ia4MfOMU2E9hq6ZNjD73-1" vertex="1">
          <mxGeometry x="60" y="290" width="275" height="250" as="geometry" />
        </mxCell>
        <mxCell id="Ia4MfOMU2E9hq6ZNjD73-3" value="+DataRequest_ID&#xa;+Name&#xa;+Status&#xa;+Protocol_ID&#xa;+Project_ID&#xa;+GitLabIssue_ID&#xa;+Visibility&#xa;+ MUCH MUCH MORE!!" style="align=left;strokeColor=none;fillColor=none;spacingLeft=4;fontSize=12;verticalAlign=top;resizable=0;rotatable=0;part=1;" parent="Ia4MfOMU2E9hq6ZNjD73-2" vertex="1">
          <mxGeometry y="30" width="275" height="220" as="geometry" />
        </mxCell>
        <mxCell id="Ia4MfOMU2E9hq6ZNjD73-4" value="Protocol" style="swimlane;childLayout=stackLayout;horizontal=1;startSize=30;horizontalStack=0;rounded=1;fontSize=14;fontStyle=0;strokeWidth=2;resizeParent=0;resizeLast=1;shadow=0;dashed=0;align=center;fillColor=#ffe6cc;strokeColor=#d79b00;" parent="Ia4MfOMU2E9hq6ZNjD73-1" vertex="1">
          <mxGeometry x="638.75" y="160" width="230" height="190" as="geometry" />
        </mxCell>
        <mxCell id="Ia4MfOMU2E9hq6ZNjD73-5" value="+Protocol_ID&#xa;+IRAP_ID&#xa;+Name&#xa;+Visibility" style="align=left;strokeColor=none;fillColor=none;spacingLeft=4;fontSize=12;verticalAlign=top;resizable=0;rotatable=0;part=1;" parent="Ia4MfOMU2E9hq6ZNjD73-4" vertex="1">
          <mxGeometry y="30" width="230" height="160" as="geometry" />
        </mxCell>
        <mxCell id="Ia4MfOMU2E9hq6ZNjD73-6" value="Cohort" style="swimlane;childLayout=stackLayout;horizontal=1;startSize=30;horizontalStack=0;rounded=1;fontSize=14;fontStyle=0;strokeWidth=2;resizeParent=0;resizeLast=1;shadow=0;dashed=0;align=center;fillColor=#ffe6cc;strokeColor=#d79b00;" parent="Ia4MfOMU2E9hq6ZNjD73-1" vertex="1">
          <mxGeometry x="638.75" y="400" width="230" height="200" as="geometry" />
        </mxCell>
        <mxCell id="Ia4MfOMU2E9hq6ZNjD73-7" value="+Cohort_ID&#xa;+Source&#xa;+Name&#xa;+Visibility" style="align=left;strokeColor=none;fillColor=none;spacingLeft=4;fontSize=12;verticalAlign=top;resizable=0;rotatable=0;part=1;" parent="Ia4MfOMU2E9hq6ZNjD73-6" vertex="1">
          <mxGeometry y="30" width="230" height="170" as="geometry" />
        </mxCell>
        <mxCell id="Ia4MfOMU2E9hq6ZNjD73-8" style="edgeStyle=orthogonalEdgeStyle;rounded=0;orthogonalLoop=1;jettySize=auto;html=1;exitX=0.5;exitY=0;exitDx=0;exitDy=0;entryX=1;entryY=0.5;entryDx=0;entryDy=0;startArrow=ERoneToMany;startFill=0;endArrow=ERmandOne;endFill=0;endSize=10;startSize=10;strokeWidth=2;strokeColor=#0000FF;" parent="Ia4MfOMU2E9hq6ZNjD73-1" source="Ia4MfOMU2E9hq6ZNjD73-69" target="Ia4MfOMU2E9hq6ZNjD73-3" edge="1">
          <mxGeometry relative="1" as="geometry">
            <mxPoint x="718.75" y="820" as="targetPoint" />
            <Array as="points">
              <mxPoint x="510" y="430" />
            </Array>
          </mxGeometry>
        </mxCell>
        <mxCell id="Ia4MfOMU2E9hq6ZNjD73-9" style="edgeStyle=orthogonalEdgeStyle;rounded=0;orthogonalLoop=1;jettySize=auto;html=1;exitX=0;exitY=0.25;exitDx=0;exitDy=0;entryX=0.566;entryY=1.009;entryDx=0;entryDy=0;startArrow=ERoneToMany;startFill=0;endArrow=ERmandOne;endFill=0;entryPerimeter=0;endSize=10;startSize=10;strokeColor=#0000FF;strokeWidth=2;" parent="Ia4MfOMU2E9hq6ZNjD73-1" source="Ia4MfOMU2E9hq6ZNjD73-66" target="Ia4MfOMU2E9hq6ZNjD73-7" edge="1">
          <mxGeometry relative="1" as="geometry">
            <mxPoint x="1068.75" y="580" as="targetPoint" />
            <Array as="points">
              <mxPoint x="769" y="752" />
            </Array>
          </mxGeometry>
        </mxCell>
        <mxCell id="Ia4MfOMU2E9hq6ZNjD73-10" value="Person" style="swimlane;childLayout=stackLayout;horizontal=1;startSize=30;horizontalStack=0;rounded=1;fontSize=14;fontStyle=0;strokeWidth=2;resizeParent=0;resizeLast=1;shadow=0;dashed=0;align=center;fillColor=#d5e8d4;strokeColor=#82b366;" parent="Ia4MfOMU2E9hq6ZNjD73-1" vertex="1">
          <mxGeometry x="598.75" y="910" width="240" height="330" as="geometry" />
        </mxCell>
        <mxCell id="Ia4MfOMU2E9hq6ZNjD73-11" value="+Person_ID (IDENTITY, arbitrary)&#xa;+Name&#xa;+Email&#xa;+Institution_ID&#xa;+AstrologicalSign&#xa;+FavoriteColor&#xa;+blazerID&#xa;+UABMC_ID&#xa;+other stuff all about system access &#xa;     OR Person-as-entity" style="align=left;strokeColor=none;fillColor=none;spacingLeft=4;fontSize=12;verticalAlign=top;resizable=0;rotatable=0;part=1;" parent="Ia4MfOMU2E9hq6ZNjD73-10" vertex="1">
          <mxGeometry y="30" width="240" height="300" as="geometry" />
        </mxCell>
        <mxCell id="Ia4MfOMU2E9hq6ZNjD73-12" style="edgeStyle=orthogonalEdgeStyle;rounded=0;orthogonalLoop=1;jettySize=auto;html=1;exitX=1.005;exitY=0.333;exitDx=0;exitDy=0;startArrow=ERmandOne;startFill=0;endArrow=ERzeroToMany;endFill=0;entryX=0.5;entryY=1;entryDx=0;entryDy=0;endSize=10;startSize=10;exitPerimeter=0;" parent="Ia4MfOMU2E9hq6ZNjD73-1" source="Ia4MfOMU2E9hq6ZNjD73-11" target="Ia4MfOMU2E9hq6ZNjD73-24" edge="1">
          <mxGeometry relative="1" as="geometry">
            <mxPoint x="848.75" y="1110" as="targetPoint" />
            <mxPoint x="1193.75" y="930" as="sourcePoint" />
          </mxGeometry>
        </mxCell>
        <mxCell id="Ia4MfOMU2E9hq6ZNjD73-13" style="edgeStyle=orthogonalEdgeStyle;rounded=0;orthogonalLoop=1;jettySize=auto;html=1;exitX=1;exitY=0.75;exitDx=0;exitDy=0;entryX=1;entryY=0;entryDx=0;entryDy=0;startArrow=ERzeroToMany;startFill=0;endArrow=ERzeroToMany;endFill=0;endSize=10;startSize=10;strokeColor=#00CC00;strokeWidth=2;" parent="Ia4MfOMU2E9hq6ZNjD73-1" source="Ia4MfOMU2E9hq6ZNjD73-15" target="Ia4MfOMU2E9hq6ZNjD73-5" edge="1">
          <mxGeometry relative="1" as="geometry">
            <Array as="points">
              <mxPoint x="1110" y="1635" />
              <mxPoint x="1110" y="190" />
            </Array>
            <mxPoint x="1308.75" y="310" as="targetPoint" />
          </mxGeometry>
        </mxCell>
        <mxCell id="Ia4MfOMU2E9hq6ZNjD73-14" value="Project" style="swimlane;childLayout=stackLayout;horizontal=1;startSize=30;horizontalStack=0;rounded=1;fontSize=14;fontStyle=0;strokeWidth=2;resizeParent=0;resizeLast=1;shadow=0;dashed=0;align=center;fillColor=#f5f5f5;strokeColor=#666666;fontColor=#333333;" parent="Ia4MfOMU2E9hq6ZNjD73-1" vertex="1">
          <mxGeometry x="598.75" y="1470" width="260" height="210" as="geometry" />
        </mxCell>
        <mxCell id="Ia4MfOMU2E9hq6ZNjD73-15" value="+Project_ID&#xa;+Name&#xa;+Description&#xa;+ProjectType" style="align=left;strokeColor=none;fillColor=none;spacingLeft=4;fontSize=12;verticalAlign=top;resizable=0;rotatable=0;part=1;" parent="Ia4MfOMU2E9hq6ZNjD73-14" vertex="1">
          <mxGeometry y="30" width="260" height="180" as="geometry" />
        </mxCell>
        <mxCell id="Ia4MfOMU2E9hq6ZNjD73-16" style="edgeStyle=orthogonalEdgeStyle;rounded=0;orthogonalLoop=1;jettySize=auto;html=1;exitX=0;exitY=0;exitDx=0;exitDy=0;entryX=0.75;entryY=0;entryDx=0;entryDy=0;startArrow=ERzeroToOne;startFill=0;endArrow=ERzeroToMany;endFill=0;strokeWidth=2;endSize=10;startSize=10;strokeColor=#00CC00;" parent="Ia4MfOMU2E9hq6ZNjD73-1" source="Ia4MfOMU2E9hq6ZNjD73-5" target="Ia4MfOMU2E9hq6ZNjD73-2" edge="1">
          <mxGeometry relative="1" as="geometry">
            <Array as="points">
              <mxPoint x="266" y="190" />
            </Array>
          </mxGeometry>
        </mxCell>
        <mxCell id="Ia4MfOMU2E9hq6ZNjD73-17" style="edgeStyle=orthogonalEdgeStyle;rounded=0;orthogonalLoop=1;jettySize=auto;html=1;startArrow=ERzeroToMany;startFill=0;endArrow=ERzeroToOne;endFill=0;entryX=0;entryY=0.75;entryDx=0;entryDy=0;exitX=0;exitY=0.75;exitDx=0;exitDy=0;endSize=10;startSize=10;strokeWidth=2;strokeColor=#00CC00;" parent="Ia4MfOMU2E9hq6ZNjD73-1" source="Ia4MfOMU2E9hq6ZNjD73-3" target="Ia4MfOMU2E9hq6ZNjD73-15" edge="1">
          <mxGeometry relative="1" as="geometry">
            <Array as="points">
              <mxPoint x="20" y="485" />
              <mxPoint x="20" y="1635" />
            </Array>
            <mxPoint x="278.75" y="760" as="sourcePoint" />
            <mxPoint x="698.75" y="1550" as="targetPoint" />
          </mxGeometry>
        </mxCell>
        <mxCell id="Ia4MfOMU2E9hq6ZNjD73-18" style="edgeStyle=orthogonalEdgeStyle;rounded=0;orthogonalLoop=1;jettySize=auto;html=1;exitX=0.5;exitY=0;exitDx=0;exitDy=0;startArrow=ERzeroToMany;startFill=0;endArrow=ERoneToMany;endFill=0;entryX=0.5;entryY=1;entryDx=0;entryDy=0;endSize=10;startSize=10;strokeColor=#00CC00;strokeWidth=2;" parent="Ia4MfOMU2E9hq6ZNjD73-1" source="Ia4MfOMU2E9hq6ZNjD73-19" target="Ia4MfOMU2E9hq6ZNjD73-15" edge="1">
          <mxGeometry relative="1" as="geometry">
            <mxPoint x="898.75" y="2160" as="targetPoint" />
          </mxGeometry>
        </mxCell>
        <mxCell id="Ia4MfOMU2E9hq6ZNjD73-19" value="Asset" style="swimlane;childLayout=stackLayout;horizontal=1;startSize=30;horizontalStack=0;rounded=1;fontSize=14;fontStyle=0;strokeWidth=2;resizeParent=0;resizeLast=1;shadow=0;dashed=0;align=center;fillColor=#f5f5f5;strokeColor=#666666;fontColor=#333333;" parent="Ia4MfOMU2E9hq6ZNjD73-1" vertex="1">
          <mxGeometry x="598.75" y="1770" width="260" height="210" as="geometry" />
        </mxCell>
        <mxCell id="Ia4MfOMU2E9hq6ZNjD73-20" value="+Asset_ID&#xa;+Type&#xa;+ContentType&#xa;+Name&#xa;+URL&#xa;+other standard Asset columns" style="align=left;strokeColor=none;fillColor=none;spacingLeft=4;fontSize=12;verticalAlign=top;resizable=0;rotatable=0;part=1;" parent="Ia4MfOMU2E9hq6ZNjD73-19" vertex="1">
          <mxGeometry y="30" width="260" height="180" as="geometry" />
        </mxCell>
        <mxCell id="Ia4MfOMU2E9hq6ZNjD73-21" style="edgeStyle=orthogonalEdgeStyle;rounded=0;orthogonalLoop=1;jettySize=auto;html=1;exitX=1;exitY=0.25;exitDx=0;exitDy=0;entryX=0.75;entryY=1;entryDx=0;entryDy=0;startArrow=ERmandOne;startFill=0;endArrow=ERzeroToMany;endFill=0;endSize=10;startSize=10;strokeColor=#0000FF;strokeWidth=2;" parent="Ia4MfOMU2E9hq6ZNjD73-1" source="Ia4MfOMU2E9hq6ZNjD73-11" target="Ia4MfOMU2E9hq6ZNjD73-59" edge="1">
          <mxGeometry relative="1" as="geometry">
            <Array as="points">
              <mxPoint x="1040" y="1015" />
            </Array>
            <mxPoint x="1158.75" y="62.5" as="targetPoint" />
          </mxGeometry>
        </mxCell>
        <mxCell id="Ia4MfOMU2E9hq6ZNjD73-22" style="edgeStyle=orthogonalEdgeStyle;rounded=0;orthogonalLoop=1;jettySize=auto;html=1;exitX=0;exitY=0.5;exitDx=0;exitDy=0;entryX=1;entryY=0.25;entryDx=0;entryDy=0;startArrow=ERzeroToMany;startFill=0;endArrow=ERzeroToMany;endFill=0;endSize=10;startSize=10;strokeColor=#00CC00;strokeWidth=2;" parent="Ia4MfOMU2E9hq6ZNjD73-1" source="Ia4MfOMU2E9hq6ZNjD73-7" target="Ia4MfOMU2E9hq6ZNjD73-3" edge="1">
          <mxGeometry relative="1" as="geometry">
            <Array as="points">
              <mxPoint x="574" y="515" />
              <mxPoint x="574" y="375" />
            </Array>
            <mxPoint x="378.75" y="516.02" as="sourcePoint" />
          </mxGeometry>
        </mxCell>
        <mxCell id="Ia4MfOMU2E9hq6ZNjD73-23" style="edgeStyle=orthogonalEdgeStyle;rounded=0;orthogonalLoop=1;jettySize=auto;html=1;entryX=0.5;entryY=1;entryDx=0;entryDy=0;startArrow=ERzeroToMany;startFill=0;endArrow=ERmandOne;endFill=0;exitX=1;exitY=0;exitDx=0;exitDy=0;endSize=10;startSize=10;strokeColor=#0000FF;strokeWidth=2;" parent="Ia4MfOMU2E9hq6ZNjD73-1" source="Ia4MfOMU2E9hq6ZNjD73-62" target="Ia4MfOMU2E9hq6ZNjD73-11" edge="1">
          <mxGeometry relative="1" as="geometry">
            <mxPoint x="778.75" y="1560" as="sourcePoint" />
            <Array as="points">
              <mxPoint x="719" y="1360" />
            </Array>
          </mxGeometry>
        </mxCell>
        <mxCell id="Ia4MfOMU2E9hq6ZNjD73-24" value="&lt;font style=&quot;font-size: 16px;&quot;&gt;&lt;b&gt;All Tables/Audit Logs&lt;/b&gt;&lt;/font&gt;&lt;br&gt;(CreatedBy, UpdatedBy, Logins,&amp;nbsp;&lt;br&gt;Downloads, Admin Activity, etc)" style="whiteSpace=wrap;html=1;align=center;" parent="Ia4MfOMU2E9hq6ZNjD73-1" vertex="1">
          <mxGeometry x="1160" y="895" width="180" height="90" as="geometry" />
        </mxCell>
        <mxCell id="Ia4MfOMU2E9hq6ZNjD73-25" style="edgeStyle=orthogonalEdgeStyle;rounded=0;orthogonalLoop=1;jettySize=auto;html=1;entryX=1;entryY=0.75;entryDx=0;entryDy=0;startArrow=ERzeroToMany;startFill=0;endArrow=ERzeroToMany;endFill=0;exitX=0.615;exitY=0.005;exitDx=0;exitDy=0;exitPerimeter=0;endSize=10;startSize=10;strokeColor=#00CC00;strokeWidth=2;" parent="Ia4MfOMU2E9hq6ZNjD73-1" source="Ia4MfOMU2E9hq6ZNjD73-14" target="Ia4MfOMU2E9hq6ZNjD73-7" edge="1">
          <mxGeometry relative="1" as="geometry">
            <Array as="points">
              <mxPoint x="759" y="1300" />
              <mxPoint x="1080" y="1300" />
              <mxPoint x="1080" y="558" />
            </Array>
            <mxPoint x="888.75" y="1560" as="sourcePoint" />
            <mxPoint x="1028.75" y="752.5" as="targetPoint" />
          </mxGeometry>
        </mxCell>
        <mxCell id="Ia4MfOMU2E9hq6ZNjD73-26" value="ClinicalDataSet" style="swimlane;childLayout=stackLayout;horizontal=1;startSize=30;horizontalStack=0;rounded=1;fontSize=14;fontStyle=0;strokeWidth=2;resizeParent=0;resizeLast=1;shadow=0;dashed=0;align=center;fillColor=#ffe6cc;strokeColor=#d79b00;" parent="Ia4MfOMU2E9hq6ZNjD73-1" vertex="1">
          <mxGeometry x="188.75" y="610" width="200" height="160" as="geometry" />
        </mxCell>
        <mxCell id="Ia4MfOMU2E9hq6ZNjD73-27" value="+ClinicalDataSet_ID&#xa;+DataRequest_ID&#xa;+FileName&#xa;+ContentType&#xa;+Description&#xa;+DataSetType (PHI, LDS, etc)&#xa;+IsFinalDeliverable&#xa;+HasBeenReviewed" style="align=left;strokeColor=none;fillColor=none;spacingLeft=4;fontSize=12;verticalAlign=top;resizable=0;rotatable=0;part=1;" parent="Ia4MfOMU2E9hq6ZNjD73-26" vertex="1">
          <mxGeometry y="30" width="200" height="130" as="geometry" />
        </mxCell>
        <mxCell id="Ia4MfOMU2E9hq6ZNjD73-28" style="edgeStyle=orthogonalEdgeStyle;rounded=0;orthogonalLoop=1;jettySize=auto;html=1;entryX=0.5;entryY=0;entryDx=0;entryDy=0;startArrow=ERzeroToOne;startFill=0;endArrow=ERzeroToMany;endFill=0;endSize=10;startSize=10;exitX=0.576;exitY=0.995;exitDx=0;exitDy=0;exitPerimeter=0;" parent="Ia4MfOMU2E9hq6ZNjD73-1" source="Ia4MfOMU2E9hq6ZNjD73-3" target="Ia4MfOMU2E9hq6ZNjD73-26" edge="1">
          <mxGeometry relative="1" as="geometry" />
        </mxCell>
        <mxCell id="Ia4MfOMU2E9hq6ZNjD73-29" value="EventLog" style="swimlane;childLayout=stackLayout;horizontal=1;startSize=30;horizontalStack=0;rounded=1;fontSize=14;fontStyle=0;strokeWidth=2;resizeParent=0;resizeLast=1;shadow=0;dashed=0;align=center;fillColor=#fff2cc;strokeColor=#d6b656;" parent="Ia4MfOMU2E9hq6ZNjD73-1" vertex="1">
          <mxGeometry x="73.75" y="1700" width="160" height="120" as="geometry" />
        </mxCell>
        <mxCell id="Ia4MfOMU2E9hq6ZNjD73-30" value="+EventID&#xa;+SourceModule_ID&#xa;+Message&#xa;+StackTrace&#xa;+EventDate" style="align=left;strokeColor=none;fillColor=none;spacingLeft=4;fontSize=12;verticalAlign=top;resizable=0;rotatable=0;part=1;" parent="Ia4MfOMU2E9hq6ZNjD73-29" vertex="1">
          <mxGeometry y="30" width="160" height="90" as="geometry" />
        </mxCell>
        <mxCell id="Ia4MfOMU2E9hq6ZNjD73-31" value="AppSettings" style="swimlane;childLayout=stackLayout;horizontal=1;startSize=30;horizontalStack=0;rounded=1;fontSize=14;fontStyle=0;strokeWidth=2;resizeParent=0;resizeLast=1;shadow=0;dashed=0;align=center;fillColor=#fff2cc;strokeColor=#d6b656;" parent="Ia4MfOMU2E9hq6ZNjD73-1" vertex="1">
          <mxGeometry x="73.75" y="1870" width="160" height="120" as="geometry" />
        </mxCell>
        <mxCell id="Ia4MfOMU2E9hq6ZNjD73-32" value="+AppSettingID&#xa;+Name&#xa;+Value" style="align=left;strokeColor=none;fillColor=none;spacingLeft=4;fontSize=12;verticalAlign=top;resizable=0;rotatable=0;part=1;" parent="Ia4MfOMU2E9hq6ZNjD73-31" vertex="1">
          <mxGeometry y="30" width="160" height="90" as="geometry" />
        </mxCell>
        <mxCell id="Ia4MfOMU2E9hq6ZNjD73-33" value="Institution" style="swimlane;childLayout=stackLayout;horizontal=1;startSize=30;horizontalStack=0;rounded=1;fontSize=14;fontStyle=0;strokeWidth=2;resizeParent=0;resizeLast=1;shadow=0;dashed=0;align=center;fillColor=#d5e8d4;strokeColor=#82b366;" parent="Ia4MfOMU2E9hq6ZNjD73-1" vertex="1">
          <mxGeometry x="345" y="1170" width="160" height="120" as="geometry" />
        </mxCell>
        <mxCell id="Ia4MfOMU2E9hq6ZNjD73-34" value="+Institution_ID&#xa;+InstitutionName" style="align=left;strokeColor=none;fillColor=none;spacingLeft=4;fontSize=12;verticalAlign=top;resizable=0;rotatable=0;part=1;" parent="Ia4MfOMU2E9hq6ZNjD73-33" vertex="1">
          <mxGeometry y="30" width="160" height="90" as="geometry" />
        </mxCell>
        <mxCell id="Ia4MfOMU2E9hq6ZNjD73-35" style="edgeStyle=orthogonalEdgeStyle;rounded=0;orthogonalLoop=1;jettySize=auto;html=1;exitX=-0.016;exitY=0.882;exitDx=0;exitDy=0;entryX=1.006;entryY=0.339;entryDx=0;entryDy=0;entryPerimeter=0;endArrow=ERzeroToOne;endFill=0;startArrow=ERzeroToMany;startFill=0;endSize=8;startSize=8;exitPerimeter=0;" parent="Ia4MfOMU2E9hq6ZNjD73-1" source="Ia4MfOMU2E9hq6ZNjD73-11" target="Ia4MfOMU2E9hq6ZNjD73-34" edge="1">
          <mxGeometry relative="1" as="geometry">
            <mxPoint x="353.75" y="1222.5" as="sourcePoint" />
          </mxGeometry>
        </mxCell>
        <mxCell id="Ia4MfOMU2E9hq6ZNjD73-36" value="Training" style="swimlane;childLayout=stackLayout;horizontal=1;startSize=30;horizontalStack=0;rounded=1;fontSize=14;fontStyle=0;strokeWidth=2;resizeParent=0;resizeLast=1;shadow=0;dashed=0;align=center;fillColor=#d5e8d4;strokeColor=#82b366;" parent="Ia4MfOMU2E9hq6ZNjD73-1" vertex="1">
          <mxGeometry x="280" y="865" width="160" height="120" as="geometry" />
        </mxCell>
        <mxCell id="Ia4MfOMU2E9hq6ZNjD73-37" value="+Training_ID&#xa;+Person_ID&#xa;+TrainingName" style="align=left;strokeColor=none;fillColor=none;spacingLeft=4;fontSize=12;verticalAlign=top;resizable=0;rotatable=0;part=1;" parent="Ia4MfOMU2E9hq6ZNjD73-36" vertex="1">
          <mxGeometry y="30" width="160" height="90" as="geometry" />
        </mxCell>
        <mxCell id="Ia4MfOMU2E9hq6ZNjD73-38" style="edgeStyle=orthogonalEdgeStyle;rounded=0;orthogonalLoop=1;jettySize=auto;html=1;exitX=1;exitY=0.25;exitDx=0;exitDy=0;entryX=-0.005;entryY=0.173;entryDx=0;entryDy=0;entryPerimeter=0;startArrow=ERzeroToMany;startFill=0;endArrow=ERmandOne;endFill=0;endSize=10;startSize=10;" parent="Ia4MfOMU2E9hq6ZNjD73-1" source="Ia4MfOMU2E9hq6ZNjD73-37" target="Ia4MfOMU2E9hq6ZNjD73-11" edge="1">
          <mxGeometry relative="1" as="geometry">
            <Array as="points">
              <mxPoint x="520" y="918" />
              <mxPoint x="520" y="992" />
            </Array>
          </mxGeometry>
        </mxCell>
        <mxCell id="Ia4MfOMU2E9hq6ZNjD73-39" style="edgeStyle=orthogonalEdgeStyle;rounded=0;orthogonalLoop=1;jettySize=auto;html=1;entryX=-0.006;entryY=0.322;entryDx=0;entryDy=0;entryPerimeter=0;startArrow=ERzeroToMany;startFill=0;endArrow=ERmandOne;endFill=0;exitX=1;exitY=0.25;exitDx=0;exitDy=0;endSize=8;startSize=8;" parent="Ia4MfOMU2E9hq6ZNjD73-1" source="Ia4MfOMU2E9hq6ZNjD73-41" target="Ia4MfOMU2E9hq6ZNjD73-11" edge="1">
          <mxGeometry relative="1" as="geometry">
            <mxPoint x="523.75" y="1040" as="sourcePoint" />
            <Array as="points">
              <mxPoint x="540" y="1075" />
              <mxPoint x="540" y="1037" />
            </Array>
          </mxGeometry>
        </mxCell>
        <mxCell id="Ia4MfOMU2E9hq6ZNjD73-40" value="RelatedSystemInfo" style="swimlane;childLayout=stackLayout;horizontal=1;startSize=30;horizontalStack=0;rounded=1;fontSize=14;fontStyle=0;strokeWidth=2;resizeParent=0;resizeLast=1;shadow=0;dashed=0;align=center;fillColor=#d5e8d4;strokeColor=#82b366;" parent="Ia4MfOMU2E9hq6ZNjD73-1" vertex="1">
          <mxGeometry x="280" y="1020" width="210" height="130" as="geometry" />
        </mxCell>
        <mxCell id="Ia4MfOMU2E9hq6ZNjD73-41" value="+RelatedSystemInfo_ID&#xa;+Person_ID&#xa;+RelatedSystemName&#xa;+RelatedSystem_ID&#xa;+Other important info about &#xa;   that Person&#39;s related records." style="align=left;strokeColor=none;fillColor=none;spacingLeft=4;fontSize=12;verticalAlign=top;resizable=0;rotatable=0;part=1;" parent="Ia4MfOMU2E9hq6ZNjD73-40" vertex="1">
          <mxGeometry y="30" width="210" height="100" as="geometry" />
        </mxCell>
        <mxCell id="Ia4MfOMU2E9hq6ZNjD73-42" value="Roles" style="swimlane;childLayout=stackLayout;horizontal=1;startSize=30;horizontalStack=0;rounded=1;fontSize=14;fontStyle=0;strokeWidth=2;resizeParent=0;resizeLast=1;shadow=0;dashed=0;align=center;fillColor=#dae8fc;strokeColor=#6c8ebf;" parent="Ia4MfOMU2E9hq6ZNjD73-1" vertex="1">
          <mxGeometry x="1408.75" y="1030" width="240" height="210" as="geometry" />
        </mxCell>
        <mxCell id="Ia4MfOMU2E9hq6ZNjD73-43" value="+Role_D&#xa;+Name&#xa;+Description&#xa;+IsCustomRole&#xa;+IsEntityRole&#xa;" style="align=left;strokeColor=none;fillColor=none;spacingLeft=4;fontSize=12;verticalAlign=top;resizable=0;rotatable=0;part=1;" parent="Ia4MfOMU2E9hq6ZNjD73-42" vertex="1">
          <mxGeometry y="30" width="240" height="180" as="geometry" />
        </mxCell>
        <mxCell id="Ia4MfOMU2E9hq6ZNjD73-44" style="edgeStyle=orthogonalEdgeStyle;rounded=0;orthogonalLoop=1;jettySize=auto;html=1;entryX=0;entryY=0.25;entryDx=0;entryDy=0;startArrow=ERzeroToMany;startFill=0;endArrow=ERmandOne;endFill=0;endSize=10;startSize=10;strokeColor=#FF0000;strokeWidth=2;" parent="Ia4MfOMU2E9hq6ZNjD73-1" target="Ia4MfOMU2E9hq6ZNjD73-42" edge="1">
          <mxGeometry relative="1" as="geometry">
            <mxPoint x="840" y="1083" as="sourcePoint" />
          </mxGeometry>
        </mxCell>
        <mxCell id="Ia4MfOMU2E9hq6ZNjD73-45" value="Permissions" style="swimlane;childLayout=stackLayout;horizontal=1;startSize=30;horizontalStack=0;rounded=1;fontSize=14;fontStyle=0;strokeWidth=2;resizeParent=0;resizeLast=1;shadow=0;dashed=0;align=center;fillColor=#dae8fc;strokeColor=#6c8ebf;" parent="Ia4MfOMU2E9hq6ZNjD73-1" vertex="1">
          <mxGeometry x="1418.75" y="1340" width="220" height="150" as="geometry" />
        </mxCell>
        <mxCell id="Ia4MfOMU2E9hq6ZNjD73-46" value="+Permission_ID&#xa;+Name&#xa;+Description&#xa;+IsEntityPermission" style="align=left;strokeColor=none;fillColor=none;spacingLeft=4;fontSize=12;verticalAlign=top;resizable=0;rotatable=0;part=1;" parent="Ia4MfOMU2E9hq6ZNjD73-45" vertex="1">
          <mxGeometry y="30" width="220" height="120" as="geometry" />
        </mxCell>
        <mxCell id="Ia4MfOMU2E9hq6ZNjD73-47" style="edgeStyle=orthogonalEdgeStyle;rounded=0;orthogonalLoop=1;jettySize=auto;html=1;exitX=0.5;exitY=1;exitDx=0;exitDy=0;entryX=0.5;entryY=0;entryDx=0;entryDy=0;startArrow=ERzeroToMany;startFill=0;endArrow=ERzeroToMany;endFill=0;endSize=10;startSize=10;" parent="Ia4MfOMU2E9hq6ZNjD73-1" source="Ia4MfOMU2E9hq6ZNjD73-43" target="Ia4MfOMU2E9hq6ZNjD73-45" edge="1">
          <mxGeometry relative="1" as="geometry" />
        </mxCell>
        <mxCell id="Ia4MfOMU2E9hq6ZNjD73-48" value="&lt;h1&gt;DataLens V2 Entity-Relationship Diagram Starting Point&lt;/h1&gt;&lt;p&gt;Authors: Nick Timkovich, Brian Harmon, Matt Wyatt, Abakash Samal, Brandon Sharp, Adarsh Khare, Heena Chitkara&lt;br&gt;Last Updated: Jan 4, 2023&lt;/p&gt;" style="text;html=1;strokeColor=none;fillColor=none;spacing=5;spacingTop=-20;whiteSpace=wrap;overflow=hidden;rounded=0;fontSize=16;" parent="Ia4MfOMU2E9hq6ZNjD73-1" vertex="1">
          <mxGeometry x="73.75" y="30" width="876.25" height="120" as="geometry" />
        </mxCell>
        <mxCell id="Ia4MfOMU2E9hq6ZNjD73-49" value="&lt;ul&gt;&lt;li&gt;This is an abstract ERD, and does not reflect full table inventory for CRIF2.&amp;nbsp; Associated documentation will be available in the future listing all tables and attributes.&lt;/li&gt;&lt;li&gt;If not shown, Many-to-Many relationships have an implied JOIN table between the entities.&lt;/li&gt;&lt;li&gt;Color Coding represents general entity collections for functional purposes.&lt;/li&gt;&lt;li&gt;Lookup and other tables are omitted for brevity&lt;/li&gt;&lt;li&gt;This is a Starting Point and SUBJECT to change.&lt;/li&gt;&lt;/ul&gt;" style="text;html=1;strokeColor=none;fillColor=none;align=left;verticalAlign=top;whiteSpace=wrap;rounded=0;fontSize=16;" parent="Ia4MfOMU2E9hq6ZNjD73-1" vertex="1">
          <mxGeometry x="1140" width="530" height="210" as="geometry" />
        </mxCell>
        <mxCell id="Ia4MfOMU2E9hq6ZNjD73-50" style="edgeStyle=orthogonalEdgeStyle;rounded=0;orthogonalLoop=1;jettySize=auto;html=1;exitX=0.5;exitY=0;exitDx=0;exitDy=0;startArrow=ERzeroToMany;startFill=0;entryX=0.385;entryY=1.005;entryDx=0;entryDy=0;entryPerimeter=0;endArrow=ERmandOne;endFill=0;endSize=10;startSize=10;" parent="Ia4MfOMU2E9hq6ZNjD73-1" source="Ia4MfOMU2E9hq6ZNjD73-51" target="Ia4MfOMU2E9hq6ZNjD73-3" edge="1">
          <mxGeometry relative="1" as="geometry" />
        </mxCell>
        <mxCell id="Ia4MfOMU2E9hq6ZNjD73-51" value="Attachment" style="swimlane;childLayout=stackLayout;horizontal=1;startSize=30;horizontalStack=0;rounded=1;fontSize=14;fontStyle=0;strokeWidth=2;resizeParent=0;resizeLast=1;shadow=0;dashed=0;align=center;fillColor=#ffe6cc;strokeColor=#d79b00;" parent="Ia4MfOMU2E9hq6ZNjD73-1" vertex="1">
          <mxGeometry x="90" y="860" width="160" height="160" as="geometry" />
        </mxCell>
        <mxCell id="Ia4MfOMU2E9hq6ZNjD73-52" value="+Attachment_ID&#xa;+DataRequest_ID&#xa;+DisplayNameforUI&#xa;+FileName&#xa;+ContentType&#xa;+" style="align=left;strokeColor=none;fillColor=none;spacingLeft=4;fontSize=12;verticalAlign=top;resizable=0;rotatable=0;part=1;" parent="Ia4MfOMU2E9hq6ZNjD73-51" vertex="1">
          <mxGeometry y="30" width="160" height="130" as="geometry" />
        </mxCell>
        <mxCell id="Ia4MfOMU2E9hq6ZNjD73-53" value="ProjectType indicates a &quot;My Stuff&quot; Project or other types (&quot;Research&quot;, &quot;Collaborative&quot;, etc].&amp;nbsp; &quot;My Stuff&quot; projects are used to manage a Person&#39;s Assets." style="text;html=1;strokeColor=none;fillColor=none;align=left;verticalAlign=top;whiteSpace=wrap;rounded=0;" parent="Ia4MfOMU2E9hq6ZNjD73-1" vertex="1">
          <mxGeometry x="880" y="1470" width="190" height="140" as="geometry" />
        </mxCell>
        <mxCell id="Ia4MfOMU2E9hq6ZNjD73-54" value="The Blue relationship lines indicate that the Assignment (&quot;Association&quot;) table will contain information about the Person&#39;s role and/or level of access to specific DRs, Protocols, Cohorts, or Projects.&lt;br&gt;&lt;br&gt;Examples:&lt;br&gt;- Homer can access Protocol #IRB-00090 because he&#39;s assigned to be the &quot;OWNER&quot; for that Protocol.&lt;br&gt;- Marge can edit DR#456-J7 because she&#39;s assigned to be the &quot;CONTRIBUTOR&quot; for that DR.&lt;br&gt;&lt;br&gt;This level of permission control is entity-level permissions, as compared to system-level permissions which are tied directly to the Person." style="text;html=1;strokeColor=none;fillColor=none;align=left;verticalAlign=top;whiteSpace=wrap;rounded=0;fontColor=#0000FF;fontStyle=1;horizontal=1;" parent="Ia4MfOMU2E9hq6ZNjD73-1" vertex="1">
          <mxGeometry x="1170" y="210" width="500" height="190" as="geometry" />
        </mxCell>
        <mxCell id="Ia4MfOMU2E9hq6ZNjD73-55" value="Roles and Permissions that are tied directly to PERSON will control system-level permissions (as compared to entity-level permissions) for a role in the application.&lt;br&gt;&lt;br&gt;Examples:&amp;nbsp;&lt;br&gt;- Requester can Access Data Requests module.&lt;br&gt;- Requester can create a new Data Request.&lt;br&gt;- Admin can manage User Accounts." style="text;html=1;strokeColor=none;fillColor=none;align=left;verticalAlign=top;whiteSpace=wrap;rounded=0;fontColor=#FF0000;" parent="Ia4MfOMU2E9hq6ZNjD73-1" vertex="1">
          <mxGeometry x="1130" y="1105" width="260" height="135" as="geometry" />
        </mxCell>
        <mxCell id="Ia4MfOMU2E9hq6ZNjD73-56" value="&lt;div style=&quot;font-family: Menlo, Monaco, &amp;quot;Courier New&amp;quot;, monospace; line-height: 18px;&quot;&gt;&lt;div style=&quot;&quot;&gt;ENTITY-LEVEL ROLE EXAMPLES:&lt;/div&gt;&lt;div style=&quot;&quot;&gt;Person to Data Request Role Types&lt;/div&gt;&lt;br&gt;&lt;div style=&quot;&quot;&gt;- Person is OWNER of DataRequest (pre-defined)&lt;/div&gt;&lt;div style=&quot;&quot;&gt;- Person is CONTRIBUTOR of DataRequest&amp;nbsp;&lt;span style=&quot;background-color: initial;&quot;&gt;(pre-defined)&lt;/span&gt;&lt;/div&gt;&lt;div style=&quot;&quot;&gt;- Person is PRINCIPAL REQUESTER of DataRequest (custom)&lt;/div&gt;&lt;div style=&quot;&quot;&gt;- Person is REQUEST MANAGER of DataRequest&amp;nbsp;&lt;span style=&quot;background-color: initial;&quot;&gt;(custom)&lt;/span&gt;&lt;/div&gt;&lt;div style=&quot;&quot;&gt;- Person is RESEARCH ASSISTANT of DataRequest&amp;nbsp;&lt;span style=&quot;background-color: initial;&quot;&gt;(custom)&lt;/span&gt;&lt;/div&gt;&lt;div style=&quot;&quot;&gt;- Person is DATA ANALYST of DataRequest&amp;nbsp;&lt;span style=&quot;background-color: initial;&quot;&gt;(custom)&lt;/span&gt;&lt;/div&gt;&lt;div style=&quot;&quot;&gt;- Person is BIOSTATISTICIAN of DataRequest&amp;nbsp;&lt;span style=&quot;background-color: initial;&quot;&gt;(custom)&lt;/span&gt;&lt;/div&gt;&lt;br&gt;&lt;div style=&quot;&quot;&gt;&lt;span style=&quot;background-color: initial;&quot;&gt;Roles can be &quot;pre-defined&quot;, like &quot;OWNER&quot; or &quot;&lt;/span&gt;CONTRIBUTOR&lt;span style=&quot;background-color: initial;&quot;&gt;&quot;; or can be &quot;custom&quot;, such as &quot;Research Project X&quot; has &quot;PROJECT MANAGER&quot;, or &quot;CO-PI&quot;, that may or may not have any permissions to that specific project.&lt;/span&gt;&lt;br&gt;&lt;/div&gt;&lt;/div&gt;" style="text;html=1;strokeColor=none;fillColor=none;align=left;verticalAlign=top;whiteSpace=wrap;rounded=0;" parent="Ia4MfOMU2E9hq6ZNjD73-1" vertex="1">
          <mxGeometry x="1190" y="1530" width="460" height="400" as="geometry" />
        </mxCell>
        <mxCell id="Ia4MfOMU2E9hq6ZNjD73-57" style="edgeStyle=orthogonalEdgeStyle;rounded=0;orthogonalLoop=1;jettySize=auto;html=1;exitX=0.5;exitY=0;exitDx=0;exitDy=0;entryX=1.01;entryY=0.384;entryDx=0;entryDy=0;entryPerimeter=0;startArrow=ERoneToMany;startFill=0;endArrow=ERmandOne;endFill=0;strokeColor=#3333FF;strokeWidth=2;endSize=10;startSize=10;" parent="Ia4MfOMU2E9hq6ZNjD73-1" source="Ia4MfOMU2E9hq6ZNjD73-58" target="Ia4MfOMU2E9hq6ZNjD73-5" edge="1">
          <mxGeometry relative="1" as="geometry">
            <Array as="points">
              <mxPoint x="1000" y="251" />
            </Array>
          </mxGeometry>
        </mxCell>
        <mxCell id="Ia4MfOMU2E9hq6ZNjD73-58" value="Protocol_Assignment" style="swimlane;childLayout=stackLayout;horizontal=1;startSize=30;horizontalStack=0;rounded=1;fontSize=14;fontStyle=0;strokeWidth=2;resizeParent=0;resizeLast=1;shadow=0;dashed=0;align=center;fillColor=#dae8fc;strokeColor=#6c8ebf;" parent="Ia4MfOMU2E9hq6ZNjD73-1" vertex="1">
          <mxGeometry x="920" y="300" width="160" height="200" as="geometry" />
        </mxCell>
        <mxCell id="Ia4MfOMU2E9hq6ZNjD73-59" value="+Protocol_ID&#xa;+Person_ID&#xa;+Role_ID&#xa;+other info about a specific&#xa;  Person assigned to a &#xa;  specific Protocol" style="align=left;strokeColor=none;fillColor=none;spacingLeft=4;fontSize=12;verticalAlign=top;resizable=0;rotatable=0;part=1;" parent="Ia4MfOMU2E9hq6ZNjD73-58" vertex="1">
          <mxGeometry y="30" width="160" height="170" as="geometry" />
        </mxCell>
        <mxCell id="Ia4MfOMU2E9hq6ZNjD73-60" style="edgeStyle=orthogonalEdgeStyle;rounded=0;orthogonalLoop=1;jettySize=auto;html=1;exitX=1;exitY=0.5;exitDx=0;exitDy=0;entryX=0.75;entryY=0;entryDx=0;entryDy=0;strokeColor=#3333FF;strokeWidth=2;startArrow=ERzeroToMany;startFill=0;endArrow=ERmandOne;endFill=0;startSize=10;endSize=10;" parent="Ia4MfOMU2E9hq6ZNjD73-1" source="Ia4MfOMU2E9hq6ZNjD73-59" target="Ia4MfOMU2E9hq6ZNjD73-42" edge="1">
          <mxGeometry relative="1" as="geometry" />
        </mxCell>
        <mxCell id="Ia4MfOMU2E9hq6ZNjD73-61" value="Project_Assignment" style="swimlane;childLayout=stackLayout;horizontal=1;startSize=30;horizontalStack=0;rounded=1;fontSize=14;fontStyle=0;strokeWidth=2;resizeParent=0;resizeLast=1;shadow=0;dashed=0;align=center;fillColor=#dae8fc;strokeColor=#6c8ebf;" parent="Ia4MfOMU2E9hq6ZNjD73-1" vertex="1">
          <mxGeometry x="420" y="1330" width="160" height="200" as="geometry" />
        </mxCell>
        <mxCell id="Ia4MfOMU2E9hq6ZNjD73-62" value="+Project_ID&#xa;+Person_ID&#xa;+Role_ID&#xa;+other info about a specific&#xa;  Person assigned to a &#xa;  specific Project" style="align=left;strokeColor=none;fillColor=none;spacingLeft=4;fontSize=12;verticalAlign=top;resizable=0;rotatable=0;part=1;" parent="Ia4MfOMU2E9hq6ZNjD73-61" vertex="1">
          <mxGeometry y="30" width="160" height="170" as="geometry" />
        </mxCell>
        <mxCell id="Ia4MfOMU2E9hq6ZNjD73-63" style="edgeStyle=orthogonalEdgeStyle;rounded=0;orthogonalLoop=1;jettySize=auto;html=1;exitX=1;exitY=0.25;exitDx=0;exitDy=0;entryX=0.25;entryY=0;entryDx=0;entryDy=0;strokeColor=#3333FF;strokeWidth=2;startArrow=ERzeroToMany;startFill=0;endArrow=ERmandOne;endFill=0;startSize=10;endSize=10;" parent="Ia4MfOMU2E9hq6ZNjD73-1" source="Ia4MfOMU2E9hq6ZNjD73-62" target="Ia4MfOMU2E9hq6ZNjD73-14" edge="1">
          <mxGeometry relative="1" as="geometry" />
        </mxCell>
        <mxCell id="Ia4MfOMU2E9hq6ZNjD73-64" style="edgeStyle=orthogonalEdgeStyle;rounded=0;orthogonalLoop=1;jettySize=auto;html=1;exitX=0.25;exitY=1;exitDx=0;exitDy=0;entryX=1.006;entryY=0.137;entryDx=0;entryDy=0;entryPerimeter=0;strokeColor=#3333FF;strokeWidth=2;startArrow=ERmandOne;startFill=0;endArrow=ERzeroToMany;endFill=0;startSize=10;endSize=10;" parent="Ia4MfOMU2E9hq6ZNjD73-1" source="Ia4MfOMU2E9hq6ZNjD73-43" target="Ia4MfOMU2E9hq6ZNjD73-62" edge="1">
          <mxGeometry relative="1" as="geometry">
            <Array as="points">
              <mxPoint x="1469" y="1290" />
              <mxPoint x="1260" y="1290" />
              <mxPoint x="1260" y="1383" />
            </Array>
          </mxGeometry>
        </mxCell>
        <mxCell id="Ia4MfOMU2E9hq6ZNjD73-65" value="Cohort_Assignment" style="swimlane;childLayout=stackLayout;horizontal=1;startSize=30;horizontalStack=0;rounded=1;fontSize=14;fontStyle=0;strokeWidth=2;resizeParent=0;resizeLast=1;shadow=0;dashed=0;align=center;strokeColor=#6c8ebf;fillColor=#dae8fc;" parent="Ia4MfOMU2E9hq6ZNjD73-1" vertex="1">
          <mxGeometry x="810" y="680" width="160" height="200" as="geometry" />
        </mxCell>
        <mxCell id="Ia4MfOMU2E9hq6ZNjD73-66" value="+Cohort_ID&#xa;+Person_ID&#xa;+Role_ID&#xa;+other info about a specific&#xa;  Person assigned to a &#xa;  specific Cohort" style="align=left;strokeColor=none;fillColor=none;spacingLeft=4;fontSize=12;verticalAlign=top;resizable=0;rotatable=0;part=1;" parent="Ia4MfOMU2E9hq6ZNjD73-65" vertex="1">
          <mxGeometry y="30" width="160" height="170" as="geometry" />
        </mxCell>
        <mxCell id="Ia4MfOMU2E9hq6ZNjD73-67" style="edgeStyle=orthogonalEdgeStyle;rounded=0;orthogonalLoop=1;jettySize=auto;html=1;exitX=0;exitY=0.5;exitDx=0;exitDy=0;entryX=0.706;entryY=0.001;entryDx=0;entryDy=0;entryPerimeter=0;strokeColor=#3333FF;strokeWidth=2;startArrow=ERzeroToMany;startFill=0;endArrow=ERmandOne;endFill=0;startSize=10;endSize=10;" parent="Ia4MfOMU2E9hq6ZNjD73-1" source="Ia4MfOMU2E9hq6ZNjD73-66" target="Ia4MfOMU2E9hq6ZNjD73-10" edge="1">
          <mxGeometry relative="1" as="geometry" />
        </mxCell>
        <mxCell id="Ia4MfOMU2E9hq6ZNjD73-68" style="edgeStyle=orthogonalEdgeStyle;rounded=0;orthogonalLoop=1;jettySize=auto;html=1;exitX=1;exitY=0.5;exitDx=0;exitDy=0;entryX=0.25;entryY=0;entryDx=0;entryDy=0;strokeColor=#3333FF;strokeWidth=2;startArrow=ERzeroToMany;startFill=0;endArrow=ERmandOne;endFill=0;startSize=10;endSize=10;" parent="Ia4MfOMU2E9hq6ZNjD73-1" source="Ia4MfOMU2E9hq6ZNjD73-66" target="Ia4MfOMU2E9hq6ZNjD73-42" edge="1">
          <mxGeometry relative="1" as="geometry" />
        </mxCell>
        <mxCell id="Ia4MfOMU2E9hq6ZNjD73-69" value="DataRequest_Assignment" style="swimlane;childLayout=stackLayout;horizontal=1;startSize=30;horizontalStack=0;rounded=1;fontSize=14;fontStyle=0;strokeWidth=2;resizeParent=0;resizeLast=1;shadow=0;dashed=0;align=center;strokeColor=#6c8ebf;fillColor=#dae8fc;" parent="Ia4MfOMU2E9hq6ZNjD73-1" vertex="1">
          <mxGeometry x="410" y="620" width="200" height="200" as="geometry" />
        </mxCell>
        <mxCell id="Ia4MfOMU2E9hq6ZNjD73-70" value="+DataRequest_ID&#xa;+Person_ID&#xa;+Role_ID&#xa;+other info about a specific&#xa;  Person assigned to a &#xa;  specific Data Request" style="align=left;strokeColor=none;fillColor=none;spacingLeft=4;fontSize=12;verticalAlign=top;resizable=0;rotatable=0;part=1;" parent="Ia4MfOMU2E9hq6ZNjD73-69" vertex="1">
          <mxGeometry y="30" width="200" height="170" as="geometry" />
        </mxCell>
        <mxCell id="Ia4MfOMU2E9hq6ZNjD73-71" style="edgeStyle=orthogonalEdgeStyle;rounded=0;orthogonalLoop=1;jettySize=auto;html=1;exitX=1;exitY=0.75;exitDx=0;exitDy=0;entryX=0.25;entryY=0;entryDx=0;entryDy=0;strokeColor=#3333FF;strokeWidth=2;fontColor=#FFFFFF;startArrow=ERzeroToMany;startFill=0;endArrow=ERmandOne;endFill=0;startSize=10;endSize=10;" parent="Ia4MfOMU2E9hq6ZNjD73-1" source="Ia4MfOMU2E9hq6ZNjD73-70" target="Ia4MfOMU2E9hq6ZNjD73-10" edge="1">
          <mxGeometry relative="1" as="geometry" />
        </mxCell>
        <mxCell id="Ia4MfOMU2E9hq6ZNjD73-72" style="edgeStyle=orthogonalEdgeStyle;rounded=0;orthogonalLoop=1;jettySize=auto;html=1;exitX=1;exitY=0;exitDx=0;exitDy=0;entryX=0.5;entryY=0;entryDx=0;entryDy=0;strokeColor=#3333FF;strokeWidth=2;fontColor=#FFFFFF;startArrow=ERzeroToMany;startFill=0;endArrow=ERmandOne;endFill=0;startSize=10;endSize=10;" parent="Ia4MfOMU2E9hq6ZNjD73-1" source="Ia4MfOMU2E9hq6ZNjD73-70" target="Ia4MfOMU2E9hq6ZNjD73-42" edge="1">
          <mxGeometry relative="1" as="geometry">
            <Array as="points">
              <mxPoint x="1529" y="650" />
            </Array>
          </mxGeometry>
        </mxCell>
        <mxCell id="Ia4MfOMU2E9hq6ZNjD73-73" value="The Green relationship lines indicate connections between the major functional entities: DataRequest, Cohort, Protocol, Project, and Asset.&amp;nbsp; Implied JOIN tables may or may not have additional columns.&lt;br&gt;&lt;br&gt;The lines are green to enhance readability of this diagram." style="text;html=1;strokeColor=none;fillColor=none;align=left;verticalAlign=top;whiteSpace=wrap;rounded=0;fontColor=#00CC00;fontStyle=1" parent="Ia4MfOMU2E9hq6ZNjD73-1" vertex="1">
          <mxGeometry x="1170" y="470" width="320" height="130" as="geometry" />
        </mxCell>
        <mxCell id="E5vE8dMoLB5P4ZMv6ce1-1" value="EDWD_DataRequest_Assignment" style="swimlane;childLayout=stackLayout;horizontal=1;startSize=30;horizontalStack=0;rounded=1;fontSize=14;fontStyle=0;strokeWidth=2;resizeParent=0;resizeLast=1;shadow=0;dashed=0;align=center;strokeColor=#6c8ebf;fillColor=#dae8fc;" parent="Ia4MfOMU2E9hq6ZNjD73-1" vertex="1">
          <mxGeometry x="100" y="1330" width="220" height="200" as="geometry" />
        </mxCell>
        <mxCell id="E5vE8dMoLB5P4ZMv6ce1-2" value="+DataRequest_ID&#xa;+Person_ID&#xa;+other info about a specific&#xa;  EDW Developer assigned to a &#xa;  specific Data Request" style="align=left;strokeColor=none;fillColor=none;spacingLeft=4;fontSize=12;verticalAlign=top;resizable=0;rotatable=0;part=1;" parent="E5vE8dMoLB5P4ZMv6ce1-1" vertex="1">
          <mxGeometry y="30" width="220" height="170" as="geometry" />
        </mxCell>
        <mxCell id="E5vE8dMoLB5P4ZMv6ce1-3" style="edgeStyle=orthogonalEdgeStyle;rounded=0;orthogonalLoop=1;jettySize=auto;html=1;exitX=1;exitY=0.25;exitDx=0;exitDy=0;entryX=0.25;entryY=1;entryDx=0;entryDy=0;strokeColor=#3333FF;strokeWidth=2;startArrow=ERzeroToMany;startFill=0;endArrow=ERmandOne;endFill=0;endSize=10;startSize=10;" parent="Ia4MfOMU2E9hq6ZNjD73-1" source="E5vE8dMoLB5P4ZMv6ce1-2" target="Ia4MfOMU2E9hq6ZNjD73-11" edge="1">
          <mxGeometry relative="1" as="geometry">
            <mxPoint x="640" y="1260" as="targetPoint" />
            <Array as="points">
              <mxPoint x="360" y="1403" />
              <mxPoint x="360" y="1310" />
              <mxPoint x="659" y="1310" />
            </Array>
          </mxGeometry>
        </mxCell>
        <mxCell id="E5vE8dMoLB5P4ZMv6ce1-4" style="edgeStyle=orthogonalEdgeStyle;rounded=0;orthogonalLoop=1;jettySize=auto;html=1;exitX=0.25;exitY=1;exitDx=0;exitDy=0;entryX=0;entryY=0.25;entryDx=0;entryDy=0;strokeColor=#3333FF;strokeWidth=2;startArrow=ERmandOne;startFill=0;endArrow=ERzeroToMany;endFill=0;startSize=10;endSize=10;" parent="Ia4MfOMU2E9hq6ZNjD73-1" source="Ia4MfOMU2E9hq6ZNjD73-3" target="E5vE8dMoLB5P4ZMv6ce1-2" edge="1">
          <mxGeometry relative="1" as="geometry">
            <Array as="points">
              <mxPoint x="129" y="600" />
              <mxPoint x="60" y="600" />
              <mxPoint x="60" y="1403" />
            </Array>
          </mxGeometry>
        </mxCell>
      </root>
    </mxGraphModel>
  </diagram>
  <diagram name="Copy of Copy of Person Role Permission" id="T_fGG2hdfYdvv22w3xRo">
    <mxGraphModel dx="1434" dy="764" grid="1" gridSize="10" guides="1" tooltips="1" connect="1" arrows="1" fold="1" page="1" pageScale="1" pageWidth="850" pageHeight="1100" math="0" shadow="0">
      <root>
        <mxCell id="-09lumX7fPDfFYuZ1dPq-0" />
        <mxCell id="-09lumX7fPDfFYuZ1dPq-1" parent="-09lumX7fPDfFYuZ1dPq-0" />
        <mxCell id="-09lumX7fPDfFYuZ1dPq-2" value="DataRequest" style="swimlane;childLayout=stackLayout;horizontal=1;startSize=30;horizontalStack=0;rounded=1;fontSize=14;fontStyle=0;strokeWidth=2;resizeParent=0;resizeLast=1;shadow=0;dashed=0;align=center;fillColor=#ffe6cc;strokeColor=#d79b00;" vertex="1" parent="-09lumX7fPDfFYuZ1dPq-1">
          <mxGeometry x="60" y="290" width="275" height="250" as="geometry" />
        </mxCell>
        <mxCell id="-09lumX7fPDfFYuZ1dPq-3" value="+DataRequest_ID&#xa;+Name&#xa;+Status&#xa;+Protocol_ID&#xa;+Project_ID&#xa;+GitLabIssue_ID&#xa;+Visibility&#xa;+ MUCH MUCH MORE!!" style="align=left;strokeColor=none;fillColor=none;spacingLeft=4;fontSize=12;verticalAlign=top;resizable=0;rotatable=0;part=1;" vertex="1" parent="-09lumX7fPDfFYuZ1dPq-2">
          <mxGeometry y="30" width="275" height="220" as="geometry" />
        </mxCell>
        <mxCell id="-09lumX7fPDfFYuZ1dPq-4" value="Protocol" style="swimlane;childLayout=stackLayout;horizontal=1;startSize=30;horizontalStack=0;rounded=1;fontSize=14;fontStyle=0;strokeWidth=2;resizeParent=0;resizeLast=1;shadow=0;dashed=0;align=center;fillColor=#ffe6cc;strokeColor=#d79b00;" vertex="1" parent="-09lumX7fPDfFYuZ1dPq-1">
          <mxGeometry x="638.75" y="160" width="230" height="190" as="geometry" />
        </mxCell>
        <mxCell id="-09lumX7fPDfFYuZ1dPq-5" value="+Protocol_ID&#xa;+IRAP_ID&#xa;+Name&#xa;+Visibility" style="align=left;strokeColor=none;fillColor=none;spacingLeft=4;fontSize=12;verticalAlign=top;resizable=0;rotatable=0;part=1;" vertex="1" parent="-09lumX7fPDfFYuZ1dPq-4">
          <mxGeometry y="30" width="230" height="160" as="geometry" />
        </mxCell>
        <mxCell id="-09lumX7fPDfFYuZ1dPq-6" value="Cohort" style="swimlane;childLayout=stackLayout;horizontal=1;startSize=30;horizontalStack=0;rounded=1;fontSize=14;fontStyle=0;strokeWidth=2;resizeParent=0;resizeLast=1;shadow=0;dashed=0;align=center;fillColor=#ffe6cc;strokeColor=#d79b00;" vertex="1" parent="-09lumX7fPDfFYuZ1dPq-1">
          <mxGeometry x="638.75" y="400" width="230" height="200" as="geometry" />
        </mxCell>
        <mxCell id="-09lumX7fPDfFYuZ1dPq-7" value="+Cohort_ID&#xa;+Source&#xa;+Name&#xa;+Visibility" style="align=left;strokeColor=none;fillColor=none;spacingLeft=4;fontSize=12;verticalAlign=top;resizable=0;rotatable=0;part=1;" vertex="1" parent="-09lumX7fPDfFYuZ1dPq-6">
          <mxGeometry y="30" width="230" height="170" as="geometry" />
        </mxCell>
        <mxCell id="-09lumX7fPDfFYuZ1dPq-8" style="edgeStyle=orthogonalEdgeStyle;rounded=0;orthogonalLoop=1;jettySize=auto;html=1;exitX=0.5;exitY=0;exitDx=0;exitDy=0;entryX=1;entryY=0.5;entryDx=0;entryDy=0;startArrow=ERoneToMany;startFill=0;endArrow=ERmandOne;endFill=0;endSize=10;startSize=10;strokeWidth=2;strokeColor=#0000FF;" edge="1" parent="-09lumX7fPDfFYuZ1dPq-1" source="-09lumX7fPDfFYuZ1dPq-69" target="-09lumX7fPDfFYuZ1dPq-3">
          <mxGeometry relative="1" as="geometry">
            <mxPoint x="718.75" y="820" as="targetPoint" />
            <Array as="points">
              <mxPoint x="510" y="430" />
            </Array>
          </mxGeometry>
        </mxCell>
        <mxCell id="-09lumX7fPDfFYuZ1dPq-9" style="edgeStyle=orthogonalEdgeStyle;rounded=0;orthogonalLoop=1;jettySize=auto;html=1;exitX=0;exitY=0.25;exitDx=0;exitDy=0;entryX=0.566;entryY=1.009;entryDx=0;entryDy=0;startArrow=ERoneToMany;startFill=0;endArrow=ERmandOne;endFill=0;entryPerimeter=0;endSize=10;startSize=10;strokeColor=#0000FF;strokeWidth=2;" edge="1" parent="-09lumX7fPDfFYuZ1dPq-1" source="-09lumX7fPDfFYuZ1dPq-66" target="-09lumX7fPDfFYuZ1dPq-7">
          <mxGeometry relative="1" as="geometry">
            <mxPoint x="1068.75" y="580" as="targetPoint" />
            <Array as="points">
              <mxPoint x="769" y="752" />
            </Array>
          </mxGeometry>
        </mxCell>
        <mxCell id="-09lumX7fPDfFYuZ1dPq-10" value="Person" style="swimlane;childLayout=stackLayout;horizontal=1;startSize=30;horizontalStack=0;rounded=1;fontSize=14;fontStyle=0;strokeWidth=2;resizeParent=0;resizeLast=1;shadow=0;dashed=0;align=center;fillColor=#d5e8d4;strokeColor=#82b366;" vertex="1" parent="-09lumX7fPDfFYuZ1dPq-1">
          <mxGeometry x="598.75" y="910" width="240" height="330" as="geometry" />
        </mxCell>
        <mxCell id="-09lumX7fPDfFYuZ1dPq-11" value="+Person_ID (IDENTITY, arbitrary)&#xa;+Name&#xa;+Email&#xa;+Institution_ID&#xa;+AstrologicalSign&#xa;+FavoriteColor&#xa;+blazerID&#xa;+UABMC_ID&#xa;+other stuff all about system access &#xa;     OR Person-as-entity" style="align=left;strokeColor=none;fillColor=none;spacingLeft=4;fontSize=12;verticalAlign=top;resizable=0;rotatable=0;part=1;" vertex="1" parent="-09lumX7fPDfFYuZ1dPq-10">
          <mxGeometry y="30" width="240" height="300" as="geometry" />
        </mxCell>
        <mxCell id="-09lumX7fPDfFYuZ1dPq-12" style="edgeStyle=orthogonalEdgeStyle;rounded=0;orthogonalLoop=1;jettySize=auto;html=1;exitX=1.005;exitY=0.333;exitDx=0;exitDy=0;startArrow=ERmandOne;startFill=0;endArrow=ERzeroToMany;endFill=0;entryX=0.5;entryY=1;entryDx=0;entryDy=0;endSize=10;startSize=10;exitPerimeter=0;" edge="1" parent="-09lumX7fPDfFYuZ1dPq-1" source="-09lumX7fPDfFYuZ1dPq-11" target="-09lumX7fPDfFYuZ1dPq-24">
          <mxGeometry relative="1" as="geometry">
            <mxPoint x="848.75" y="1110" as="targetPoint" />
            <mxPoint x="1193.75" y="930" as="sourcePoint" />
          </mxGeometry>
        </mxCell>
        <mxCell id="-09lumX7fPDfFYuZ1dPq-13" style="edgeStyle=orthogonalEdgeStyle;rounded=0;orthogonalLoop=1;jettySize=auto;html=1;exitX=1;exitY=0.75;exitDx=0;exitDy=0;entryX=1;entryY=0;entryDx=0;entryDy=0;startArrow=ERzeroToMany;startFill=0;endArrow=ERzeroToMany;endFill=0;endSize=10;startSize=10;strokeColor=#00CC00;strokeWidth=2;" edge="1" parent="-09lumX7fPDfFYuZ1dPq-1" source="-09lumX7fPDfFYuZ1dPq-15" target="-09lumX7fPDfFYuZ1dPq-5">
          <mxGeometry relative="1" as="geometry">
            <Array as="points">
              <mxPoint x="1110" y="1635" />
              <mxPoint x="1110" y="190" />
            </Array>
            <mxPoint x="1308.75" y="310" as="targetPoint" />
          </mxGeometry>
        </mxCell>
        <mxCell id="-09lumX7fPDfFYuZ1dPq-14" value="Project" style="swimlane;childLayout=stackLayout;horizontal=1;startSize=30;horizontalStack=0;rounded=1;fontSize=14;fontStyle=0;strokeWidth=2;resizeParent=0;resizeLast=1;shadow=0;dashed=0;align=center;fillColor=#f5f5f5;strokeColor=#666666;fontColor=#333333;" vertex="1" parent="-09lumX7fPDfFYuZ1dPq-1">
          <mxGeometry x="598.75" y="1470" width="260" height="210" as="geometry" />
        </mxCell>
        <mxCell id="-09lumX7fPDfFYuZ1dPq-15" value="+Project_ID&#xa;+Name&#xa;+Description&#xa;+ProjectType" style="align=left;strokeColor=none;fillColor=none;spacingLeft=4;fontSize=12;verticalAlign=top;resizable=0;rotatable=0;part=1;" vertex="1" parent="-09lumX7fPDfFYuZ1dPq-14">
          <mxGeometry y="30" width="260" height="180" as="geometry" />
        </mxCell>
        <mxCell id="-09lumX7fPDfFYuZ1dPq-16" style="edgeStyle=orthogonalEdgeStyle;rounded=0;orthogonalLoop=1;jettySize=auto;html=1;exitX=0;exitY=0;exitDx=0;exitDy=0;entryX=0.75;entryY=0;entryDx=0;entryDy=0;startArrow=ERzeroToOne;startFill=0;endArrow=ERzeroToMany;endFill=0;strokeWidth=2;endSize=10;startSize=10;strokeColor=#00CC00;" edge="1" parent="-09lumX7fPDfFYuZ1dPq-1" source="-09lumX7fPDfFYuZ1dPq-5" target="-09lumX7fPDfFYuZ1dPq-2">
          <mxGeometry relative="1" as="geometry">
            <Array as="points">
              <mxPoint x="266" y="190" />
            </Array>
          </mxGeometry>
        </mxCell>
        <mxCell id="-09lumX7fPDfFYuZ1dPq-17" style="edgeStyle=orthogonalEdgeStyle;rounded=0;orthogonalLoop=1;jettySize=auto;html=1;startArrow=ERzeroToMany;startFill=0;endArrow=ERzeroToOne;endFill=0;entryX=0;entryY=0.75;entryDx=0;entryDy=0;exitX=0;exitY=0.75;exitDx=0;exitDy=0;endSize=10;startSize=10;strokeWidth=2;strokeColor=#00CC00;" edge="1" parent="-09lumX7fPDfFYuZ1dPq-1" source="-09lumX7fPDfFYuZ1dPq-3" target="-09lumX7fPDfFYuZ1dPq-15">
          <mxGeometry relative="1" as="geometry">
            <Array as="points">
              <mxPoint x="20" y="485" />
              <mxPoint x="20" y="1635" />
            </Array>
            <mxPoint x="278.75" y="760" as="sourcePoint" />
            <mxPoint x="698.75" y="1550" as="targetPoint" />
          </mxGeometry>
        </mxCell>
        <mxCell id="-09lumX7fPDfFYuZ1dPq-18" style="edgeStyle=orthogonalEdgeStyle;rounded=0;orthogonalLoop=1;jettySize=auto;html=1;exitX=0.5;exitY=0;exitDx=0;exitDy=0;startArrow=ERzeroToMany;startFill=0;endArrow=ERoneToMany;endFill=0;entryX=0.5;entryY=1;entryDx=0;entryDy=0;endSize=10;startSize=10;strokeColor=#00CC00;strokeWidth=2;" edge="1" parent="-09lumX7fPDfFYuZ1dPq-1" source="-09lumX7fPDfFYuZ1dPq-19" target="-09lumX7fPDfFYuZ1dPq-15">
          <mxGeometry relative="1" as="geometry">
            <mxPoint x="898.75" y="2160" as="targetPoint" />
          </mxGeometry>
        </mxCell>
        <mxCell id="-09lumX7fPDfFYuZ1dPq-19" value="Asset" style="swimlane;childLayout=stackLayout;horizontal=1;startSize=30;horizontalStack=0;rounded=1;fontSize=14;fontStyle=0;strokeWidth=2;resizeParent=0;resizeLast=1;shadow=0;dashed=0;align=center;fillColor=#f5f5f5;strokeColor=#666666;fontColor=#333333;" vertex="1" parent="-09lumX7fPDfFYuZ1dPq-1">
          <mxGeometry x="598.75" y="1770" width="260" height="210" as="geometry" />
        </mxCell>
        <mxCell id="-09lumX7fPDfFYuZ1dPq-20" value="+Asset_ID&#xa;+Type&#xa;+ContentType&#xa;+Name&#xa;+URL&#xa;+other standard Asset columns" style="align=left;strokeColor=none;fillColor=none;spacingLeft=4;fontSize=12;verticalAlign=top;resizable=0;rotatable=0;part=1;" vertex="1" parent="-09lumX7fPDfFYuZ1dPq-19">
          <mxGeometry y="30" width="260" height="180" as="geometry" />
        </mxCell>
        <mxCell id="-09lumX7fPDfFYuZ1dPq-21" style="edgeStyle=orthogonalEdgeStyle;rounded=0;orthogonalLoop=1;jettySize=auto;html=1;exitX=1;exitY=0.25;exitDx=0;exitDy=0;entryX=0.75;entryY=1;entryDx=0;entryDy=0;startArrow=ERmandOne;startFill=0;endArrow=ERzeroToMany;endFill=0;endSize=10;startSize=10;strokeColor=#0000FF;strokeWidth=2;" edge="1" parent="-09lumX7fPDfFYuZ1dPq-1" source="-09lumX7fPDfFYuZ1dPq-11" target="-09lumX7fPDfFYuZ1dPq-59">
          <mxGeometry relative="1" as="geometry">
            <Array as="points">
              <mxPoint x="1040" y="1015" />
            </Array>
            <mxPoint x="1158.75" y="62.5" as="targetPoint" />
          </mxGeometry>
        </mxCell>
        <mxCell id="-09lumX7fPDfFYuZ1dPq-22" style="edgeStyle=orthogonalEdgeStyle;rounded=0;orthogonalLoop=1;jettySize=auto;html=1;exitX=0;exitY=0.5;exitDx=0;exitDy=0;entryX=1;entryY=0.25;entryDx=0;entryDy=0;startArrow=ERzeroToMany;startFill=0;endArrow=ERzeroToMany;endFill=0;endSize=10;startSize=10;strokeColor=#00CC00;strokeWidth=2;" edge="1" parent="-09lumX7fPDfFYuZ1dPq-1" source="-09lumX7fPDfFYuZ1dPq-7" target="-09lumX7fPDfFYuZ1dPq-3">
          <mxGeometry relative="1" as="geometry">
            <Array as="points">
              <mxPoint x="574" y="515" />
              <mxPoint x="574" y="375" />
            </Array>
            <mxPoint x="378.75" y="516.02" as="sourcePoint" />
          </mxGeometry>
        </mxCell>
        <mxCell id="-09lumX7fPDfFYuZ1dPq-23" style="edgeStyle=orthogonalEdgeStyle;rounded=0;orthogonalLoop=1;jettySize=auto;html=1;entryX=0.5;entryY=1;entryDx=0;entryDy=0;startArrow=ERzeroToMany;startFill=0;endArrow=ERmandOne;endFill=0;exitX=1;exitY=0;exitDx=0;exitDy=0;endSize=10;startSize=10;strokeColor=#0000FF;strokeWidth=2;" edge="1" parent="-09lumX7fPDfFYuZ1dPq-1" source="-09lumX7fPDfFYuZ1dPq-62" target="-09lumX7fPDfFYuZ1dPq-11">
          <mxGeometry relative="1" as="geometry">
            <mxPoint x="778.75" y="1560" as="sourcePoint" />
            <Array as="points">
              <mxPoint x="719" y="1360" />
            </Array>
          </mxGeometry>
        </mxCell>
        <mxCell id="-09lumX7fPDfFYuZ1dPq-24" value="&lt;font style=&quot;font-size: 16px;&quot;&gt;&lt;b&gt;All Tables/Audit Logs&lt;/b&gt;&lt;/font&gt;&lt;br&gt;(CreatedBy, UpdatedBy, Logins,&amp;nbsp;&lt;br&gt;Downloads, Admin Activity, etc)" style="whiteSpace=wrap;html=1;align=center;" vertex="1" parent="-09lumX7fPDfFYuZ1dPq-1">
          <mxGeometry x="1160" y="895" width="180" height="90" as="geometry" />
        </mxCell>
        <mxCell id="-09lumX7fPDfFYuZ1dPq-25" style="edgeStyle=orthogonalEdgeStyle;rounded=0;orthogonalLoop=1;jettySize=auto;html=1;entryX=1;entryY=0.75;entryDx=0;entryDy=0;startArrow=ERzeroToMany;startFill=0;endArrow=ERzeroToMany;endFill=0;exitX=0.615;exitY=0.005;exitDx=0;exitDy=0;exitPerimeter=0;endSize=10;startSize=10;strokeColor=#00CC00;strokeWidth=2;" edge="1" parent="-09lumX7fPDfFYuZ1dPq-1" source="-09lumX7fPDfFYuZ1dPq-14" target="-09lumX7fPDfFYuZ1dPq-7">
          <mxGeometry relative="1" as="geometry">
            <Array as="points">
              <mxPoint x="759" y="1300" />
              <mxPoint x="1080" y="1300" />
              <mxPoint x="1080" y="558" />
            </Array>
            <mxPoint x="888.75" y="1560" as="sourcePoint" />
            <mxPoint x="1028.75" y="752.5" as="targetPoint" />
          </mxGeometry>
        </mxCell>
        <mxCell id="-09lumX7fPDfFYuZ1dPq-26" value="ClinicalDataSet" style="swimlane;childLayout=stackLayout;horizontal=1;startSize=30;horizontalStack=0;rounded=1;fontSize=14;fontStyle=0;strokeWidth=2;resizeParent=0;resizeLast=1;shadow=0;dashed=0;align=center;fillColor=#ffe6cc;strokeColor=#d79b00;" vertex="1" parent="-09lumX7fPDfFYuZ1dPq-1">
          <mxGeometry x="188.75" y="610" width="200" height="160" as="geometry" />
        </mxCell>
        <mxCell id="-09lumX7fPDfFYuZ1dPq-27" value="+ClinicalDataSet_ID&#xa;+DataRequest_ID&#xa;+FileName&#xa;+ContentType&#xa;+Description&#xa;+DataSetType (PHI, LDS, etc)&#xa;+IsFinalDeliverable&#xa;+HasBeenReviewed" style="align=left;strokeColor=none;fillColor=none;spacingLeft=4;fontSize=12;verticalAlign=top;resizable=0;rotatable=0;part=1;" vertex="1" parent="-09lumX7fPDfFYuZ1dPq-26">
          <mxGeometry y="30" width="200" height="130" as="geometry" />
        </mxCell>
        <mxCell id="-09lumX7fPDfFYuZ1dPq-28" style="edgeStyle=orthogonalEdgeStyle;rounded=0;orthogonalLoop=1;jettySize=auto;html=1;entryX=0.5;entryY=0;entryDx=0;entryDy=0;startArrow=ERzeroToOne;startFill=0;endArrow=ERzeroToMany;endFill=0;endSize=10;startSize=10;exitX=0.576;exitY=0.995;exitDx=0;exitDy=0;exitPerimeter=0;" edge="1" parent="-09lumX7fPDfFYuZ1dPq-1" source="-09lumX7fPDfFYuZ1dPq-3" target="-09lumX7fPDfFYuZ1dPq-26">
          <mxGeometry relative="1" as="geometry" />
        </mxCell>
        <mxCell id="-09lumX7fPDfFYuZ1dPq-29" value="EventLog" style="swimlane;childLayout=stackLayout;horizontal=1;startSize=30;horizontalStack=0;rounded=1;fontSize=14;fontStyle=0;strokeWidth=2;resizeParent=0;resizeLast=1;shadow=0;dashed=0;align=center;fillColor=#fff2cc;strokeColor=#d6b656;" vertex="1" parent="-09lumX7fPDfFYuZ1dPq-1">
          <mxGeometry x="73.75" y="1700" width="160" height="120" as="geometry" />
        </mxCell>
        <mxCell id="-09lumX7fPDfFYuZ1dPq-30" value="+EventID&#xa;+SourceModule_ID&#xa;+Message&#xa;+StackTrace&#xa;+EventDate" style="align=left;strokeColor=none;fillColor=none;spacingLeft=4;fontSize=12;verticalAlign=top;resizable=0;rotatable=0;part=1;" vertex="1" parent="-09lumX7fPDfFYuZ1dPq-29">
          <mxGeometry y="30" width="160" height="90" as="geometry" />
        </mxCell>
        <mxCell id="-09lumX7fPDfFYuZ1dPq-31" value="AppSettings" style="swimlane;childLayout=stackLayout;horizontal=1;startSize=30;horizontalStack=0;rounded=1;fontSize=14;fontStyle=0;strokeWidth=2;resizeParent=0;resizeLast=1;shadow=0;dashed=0;align=center;fillColor=#fff2cc;strokeColor=#d6b656;" vertex="1" parent="-09lumX7fPDfFYuZ1dPq-1">
          <mxGeometry x="73.75" y="1870" width="160" height="120" as="geometry" />
        </mxCell>
        <mxCell id="-09lumX7fPDfFYuZ1dPq-32" value="+AppSettingID&#xa;+Name&#xa;+Value" style="align=left;strokeColor=none;fillColor=none;spacingLeft=4;fontSize=12;verticalAlign=top;resizable=0;rotatable=0;part=1;" vertex="1" parent="-09lumX7fPDfFYuZ1dPq-31">
          <mxGeometry y="30" width="160" height="90" as="geometry" />
        </mxCell>
        <mxCell id="-09lumX7fPDfFYuZ1dPq-33" value="Institution" style="swimlane;childLayout=stackLayout;horizontal=1;startSize=30;horizontalStack=0;rounded=1;fontSize=14;fontStyle=0;strokeWidth=2;resizeParent=0;resizeLast=1;shadow=0;dashed=0;align=center;fillColor=#d5e8d4;strokeColor=#82b366;" vertex="1" parent="-09lumX7fPDfFYuZ1dPq-1">
          <mxGeometry x="345" y="1170" width="160" height="120" as="geometry" />
        </mxCell>
        <mxCell id="-09lumX7fPDfFYuZ1dPq-34" value="+Institution_ID&#xa;+InstitutionName" style="align=left;strokeColor=none;fillColor=none;spacingLeft=4;fontSize=12;verticalAlign=top;resizable=0;rotatable=0;part=1;" vertex="1" parent="-09lumX7fPDfFYuZ1dPq-33">
          <mxGeometry y="30" width="160" height="90" as="geometry" />
        </mxCell>
        <mxCell id="-09lumX7fPDfFYuZ1dPq-35" style="edgeStyle=orthogonalEdgeStyle;rounded=0;orthogonalLoop=1;jettySize=auto;html=1;exitX=-0.016;exitY=0.882;exitDx=0;exitDy=0;entryX=1.006;entryY=0.339;entryDx=0;entryDy=0;entryPerimeter=0;endArrow=ERzeroToOne;endFill=0;startArrow=ERzeroToMany;startFill=0;endSize=8;startSize=8;exitPerimeter=0;" edge="1" parent="-09lumX7fPDfFYuZ1dPq-1" source="-09lumX7fPDfFYuZ1dPq-11" target="-09lumX7fPDfFYuZ1dPq-34">
          <mxGeometry relative="1" as="geometry">
            <mxPoint x="353.75" y="1222.5" as="sourcePoint" />
          </mxGeometry>
        </mxCell>
        <mxCell id="-09lumX7fPDfFYuZ1dPq-36" value="Training" style="swimlane;childLayout=stackLayout;horizontal=1;startSize=30;horizontalStack=0;rounded=1;fontSize=14;fontStyle=0;strokeWidth=2;resizeParent=0;resizeLast=1;shadow=0;dashed=0;align=center;fillColor=#d5e8d4;strokeColor=#82b366;" vertex="1" parent="-09lumX7fPDfFYuZ1dPq-1">
          <mxGeometry x="280" y="865" width="160" height="120" as="geometry" />
        </mxCell>
        <mxCell id="-09lumX7fPDfFYuZ1dPq-37" value="+Training_ID&#xa;+Person_ID&#xa;+TrainingName" style="align=left;strokeColor=none;fillColor=none;spacingLeft=4;fontSize=12;verticalAlign=top;resizable=0;rotatable=0;part=1;" vertex="1" parent="-09lumX7fPDfFYuZ1dPq-36">
          <mxGeometry y="30" width="160" height="90" as="geometry" />
        </mxCell>
        <mxCell id="-09lumX7fPDfFYuZ1dPq-38" style="edgeStyle=orthogonalEdgeStyle;rounded=0;orthogonalLoop=1;jettySize=auto;html=1;exitX=1;exitY=0.25;exitDx=0;exitDy=0;entryX=-0.005;entryY=0.173;entryDx=0;entryDy=0;entryPerimeter=0;startArrow=ERzeroToMany;startFill=0;endArrow=ERmandOne;endFill=0;endSize=10;startSize=10;" edge="1" parent="-09lumX7fPDfFYuZ1dPq-1" source="-09lumX7fPDfFYuZ1dPq-37" target="-09lumX7fPDfFYuZ1dPq-11">
          <mxGeometry relative="1" as="geometry">
            <Array as="points">
              <mxPoint x="520" y="918" />
              <mxPoint x="520" y="992" />
            </Array>
          </mxGeometry>
        </mxCell>
        <mxCell id="-09lumX7fPDfFYuZ1dPq-39" style="edgeStyle=orthogonalEdgeStyle;rounded=0;orthogonalLoop=1;jettySize=auto;html=1;entryX=-0.006;entryY=0.322;entryDx=0;entryDy=0;entryPerimeter=0;startArrow=ERzeroToMany;startFill=0;endArrow=ERmandOne;endFill=0;exitX=1;exitY=0.25;exitDx=0;exitDy=0;endSize=8;startSize=8;" edge="1" parent="-09lumX7fPDfFYuZ1dPq-1" source="-09lumX7fPDfFYuZ1dPq-41" target="-09lumX7fPDfFYuZ1dPq-11">
          <mxGeometry relative="1" as="geometry">
            <mxPoint x="523.75" y="1040" as="sourcePoint" />
            <Array as="points">
              <mxPoint x="540" y="1075" />
              <mxPoint x="540" y="1037" />
            </Array>
          </mxGeometry>
        </mxCell>
        <mxCell id="-09lumX7fPDfFYuZ1dPq-40" value="RelatedSystemInfo" style="swimlane;childLayout=stackLayout;horizontal=1;startSize=30;horizontalStack=0;rounded=1;fontSize=14;fontStyle=0;strokeWidth=2;resizeParent=0;resizeLast=1;shadow=0;dashed=0;align=center;fillColor=#d5e8d4;strokeColor=#82b366;" vertex="1" parent="-09lumX7fPDfFYuZ1dPq-1">
          <mxGeometry x="280" y="1020" width="210" height="130" as="geometry" />
        </mxCell>
        <mxCell id="-09lumX7fPDfFYuZ1dPq-41" value="+RelatedSystemInfo_ID&#xa;+Person_ID&#xa;+RelatedSystemName&#xa;+RelatedSystem_ID&#xa;+Other important info about &#xa;   that Person&#39;s related records." style="align=left;strokeColor=none;fillColor=none;spacingLeft=4;fontSize=12;verticalAlign=top;resizable=0;rotatable=0;part=1;" vertex="1" parent="-09lumX7fPDfFYuZ1dPq-40">
          <mxGeometry y="30" width="210" height="100" as="geometry" />
        </mxCell>
        <mxCell id="-09lumX7fPDfFYuZ1dPq-42" value="Roles" style="swimlane;childLayout=stackLayout;horizontal=1;startSize=30;horizontalStack=0;rounded=1;fontSize=14;fontStyle=0;strokeWidth=2;resizeParent=0;resizeLast=1;shadow=0;dashed=0;align=center;fillColor=#dae8fc;strokeColor=#6c8ebf;" vertex="1" parent="-09lumX7fPDfFYuZ1dPq-1">
          <mxGeometry x="1408.75" y="1030" width="240" height="210" as="geometry" />
        </mxCell>
        <mxCell id="-09lumX7fPDfFYuZ1dPq-43" value="+Role_D&#xa;+Name&#xa;+Description&#xa;+IsCustomRole&#xa;+IsEntityRole&#xa;" style="align=left;strokeColor=none;fillColor=none;spacingLeft=4;fontSize=12;verticalAlign=top;resizable=0;rotatable=0;part=1;" vertex="1" parent="-09lumX7fPDfFYuZ1dPq-42">
          <mxGeometry y="30" width="240" height="180" as="geometry" />
        </mxCell>
        <mxCell id="-09lumX7fPDfFYuZ1dPq-44" style="edgeStyle=orthogonalEdgeStyle;rounded=0;orthogonalLoop=1;jettySize=auto;html=1;entryX=0;entryY=0.25;entryDx=0;entryDy=0;startArrow=ERzeroToMany;startFill=0;endArrow=ERmandOne;endFill=0;endSize=10;startSize=10;strokeColor=#FF0000;strokeWidth=2;" edge="1" parent="-09lumX7fPDfFYuZ1dPq-1" target="-09lumX7fPDfFYuZ1dPq-42">
          <mxGeometry relative="1" as="geometry">
            <mxPoint x="840" y="1083" as="sourcePoint" />
          </mxGeometry>
        </mxCell>
        <mxCell id="-09lumX7fPDfFYuZ1dPq-45" value="Permissions" style="swimlane;childLayout=stackLayout;horizontal=1;startSize=30;horizontalStack=0;rounded=1;fontSize=14;fontStyle=0;strokeWidth=2;resizeParent=0;resizeLast=1;shadow=0;dashed=0;align=center;fillColor=#dae8fc;strokeColor=#6c8ebf;" vertex="1" parent="-09lumX7fPDfFYuZ1dPq-1">
          <mxGeometry x="1418.75" y="1340" width="220" height="150" as="geometry" />
        </mxCell>
        <mxCell id="-09lumX7fPDfFYuZ1dPq-46" value="+Permission_ID&#xa;+Name&#xa;+Description&#xa;+IsEntityPermission" style="align=left;strokeColor=none;fillColor=none;spacingLeft=4;fontSize=12;verticalAlign=top;resizable=0;rotatable=0;part=1;" vertex="1" parent="-09lumX7fPDfFYuZ1dPq-45">
          <mxGeometry y="30" width="220" height="120" as="geometry" />
        </mxCell>
        <mxCell id="-09lumX7fPDfFYuZ1dPq-47" style="edgeStyle=orthogonalEdgeStyle;rounded=0;orthogonalLoop=1;jettySize=auto;html=1;exitX=0.5;exitY=1;exitDx=0;exitDy=0;entryX=0.5;entryY=0;entryDx=0;entryDy=0;startArrow=ERzeroToMany;startFill=0;endArrow=ERzeroToMany;endFill=0;endSize=10;startSize=10;" edge="1" parent="-09lumX7fPDfFYuZ1dPq-1" source="-09lumX7fPDfFYuZ1dPq-43" target="-09lumX7fPDfFYuZ1dPq-45">
          <mxGeometry relative="1" as="geometry" />
        </mxCell>
        <mxCell id="-09lumX7fPDfFYuZ1dPq-48" value="&lt;h1&gt;DataLens V2 Entity-Relationship Diagram Starting Point&lt;/h1&gt;&lt;p&gt;Authors: Nick Timkovich, Brian Harmon, Matt Wyatt, Abakash Samal, Brandon Sharp, Adarsh Khare, Heena Chitkara&lt;br&gt;Last Updated: Jan 4, 2023&lt;/p&gt;" style="text;html=1;strokeColor=none;fillColor=none;spacing=5;spacingTop=-20;whiteSpace=wrap;overflow=hidden;rounded=0;fontSize=16;" vertex="1" parent="-09lumX7fPDfFYuZ1dPq-1">
          <mxGeometry x="73.75" y="30" width="876.25" height="120" as="geometry" />
        </mxCell>
        <mxCell id="-09lumX7fPDfFYuZ1dPq-49" value="&lt;ul&gt;&lt;li&gt;This is an abstract ERD, and does not reflect full table inventory for CRIF2.&amp;nbsp; Associated documentation will be available in the future listing all tables and attributes.&lt;/li&gt;&lt;li&gt;If not shown, Many-to-Many relationships have an implied JOIN table between the entities.&lt;/li&gt;&lt;li&gt;Color Coding represents general entity collections for functional purposes.&lt;/li&gt;&lt;li&gt;Lookup and other tables are omitted for brevity&lt;/li&gt;&lt;li&gt;This is a Starting Point and SUBJECT to change.&lt;/li&gt;&lt;/ul&gt;" style="text;html=1;strokeColor=none;fillColor=none;align=left;verticalAlign=top;whiteSpace=wrap;rounded=0;fontSize=16;" vertex="1" parent="-09lumX7fPDfFYuZ1dPq-1">
          <mxGeometry x="1140" width="530" height="210" as="geometry" />
        </mxCell>
        <mxCell id="-09lumX7fPDfFYuZ1dPq-50" style="edgeStyle=orthogonalEdgeStyle;rounded=0;orthogonalLoop=1;jettySize=auto;html=1;exitX=0.5;exitY=0;exitDx=0;exitDy=0;startArrow=ERzeroToMany;startFill=0;entryX=0.385;entryY=1.005;entryDx=0;entryDy=0;entryPerimeter=0;endArrow=ERmandOne;endFill=0;endSize=10;startSize=10;" edge="1" parent="-09lumX7fPDfFYuZ1dPq-1" source="-09lumX7fPDfFYuZ1dPq-51" target="-09lumX7fPDfFYuZ1dPq-3">
          <mxGeometry relative="1" as="geometry" />
        </mxCell>
        <mxCell id="-09lumX7fPDfFYuZ1dPq-51" value="Attachment" style="swimlane;childLayout=stackLayout;horizontal=1;startSize=30;horizontalStack=0;rounded=1;fontSize=14;fontStyle=0;strokeWidth=2;resizeParent=0;resizeLast=1;shadow=0;dashed=0;align=center;fillColor=#ffe6cc;strokeColor=#d79b00;" vertex="1" parent="-09lumX7fPDfFYuZ1dPq-1">
          <mxGeometry x="90" y="860" width="160" height="160" as="geometry" />
        </mxCell>
        <mxCell id="-09lumX7fPDfFYuZ1dPq-52" value="+Attachment_ID&#xa;+DataRequest_ID&#xa;+DisplayNameforUI&#xa;+FileName&#xa;+ContentType&#xa;+" style="align=left;strokeColor=none;fillColor=none;spacingLeft=4;fontSize=12;verticalAlign=top;resizable=0;rotatable=0;part=1;" vertex="1" parent="-09lumX7fPDfFYuZ1dPq-51">
          <mxGeometry y="30" width="160" height="130" as="geometry" />
        </mxCell>
        <mxCell id="-09lumX7fPDfFYuZ1dPq-54" value="The Blue relationship lines indicate that the Assignment (&quot;Association&quot;) table will contain information about the Person&#39;s role and/or level of access to specific DRs, Protocols, Cohorts, or Projects.&lt;br&gt;&lt;br&gt;Examples:&lt;br&gt;- Homer can access Protocol #IRB-00090 because he&#39;s assigned to be the &quot;OWNER&quot; for that Protocol.&lt;br&gt;- Marge can edit DR#456-J7 because she&#39;s assigned to be the &quot;CONTRIBUTOR&quot; for that DR.&lt;br&gt;&lt;br&gt;This level of permission control is entity-level permissions, as compared to system-level permissions which are tied directly to the Person." style="text;html=1;strokeColor=none;fillColor=none;align=left;verticalAlign=top;whiteSpace=wrap;rounded=0;fontColor=#0000FF;fontStyle=1;horizontal=1;" vertex="1" parent="-09lumX7fPDfFYuZ1dPq-1">
          <mxGeometry x="1170" y="210" width="500" height="190" as="geometry" />
        </mxCell>
        <mxCell id="-09lumX7fPDfFYuZ1dPq-55" value="Roles and Permissions that are tied directly to PERSON will control system-level permissions (as compared to entity-level permissions) for a role in the application.&lt;br&gt;&lt;br&gt;Examples:&amp;nbsp;&lt;br&gt;- Requester can Access Data Requests module.&lt;br&gt;- Requester can create a new Data Request.&lt;br&gt;- Admin can manage User Accounts." style="text;html=1;strokeColor=none;fillColor=none;align=left;verticalAlign=top;whiteSpace=wrap;rounded=0;fontColor=#FF0000;" vertex="1" parent="-09lumX7fPDfFYuZ1dPq-1">
          <mxGeometry x="1130" y="1105" width="260" height="135" as="geometry" />
        </mxCell>
        <mxCell id="-09lumX7fPDfFYuZ1dPq-56" value="&lt;div style=&quot;font-family: Menlo, Monaco, &amp;quot;Courier New&amp;quot;, monospace; line-height: 18px;&quot;&gt;&lt;div style=&quot;&quot;&gt;ENTITY-LEVEL ROLE EXAMPLES:&lt;/div&gt;&lt;div style=&quot;&quot;&gt;Person to Data Request Role Types&lt;/div&gt;&lt;br&gt;&lt;div style=&quot;&quot;&gt;- Person is OWNER of DataRequest (pre-defined)&lt;/div&gt;&lt;div style=&quot;&quot;&gt;- Person is CONTRIBUTOR of DataRequest&amp;nbsp;&lt;span style=&quot;background-color: initial;&quot;&gt;(pre-defined)&lt;/span&gt;&lt;/div&gt;&lt;div style=&quot;&quot;&gt;- Person is PRINCIPAL REQUESTER of DataRequest (custom)&lt;/div&gt;&lt;div style=&quot;&quot;&gt;- Person is REQUEST MANAGER of DataRequest&amp;nbsp;&lt;span style=&quot;background-color: initial;&quot;&gt;(custom)&lt;/span&gt;&lt;/div&gt;&lt;div style=&quot;&quot;&gt;- Person is RESEARCH ASSISTANT of DataRequest&amp;nbsp;&lt;span style=&quot;background-color: initial;&quot;&gt;(custom)&lt;/span&gt;&lt;/div&gt;&lt;div style=&quot;&quot;&gt;- Person is DATA ANALYST of DataRequest&amp;nbsp;&lt;span style=&quot;background-color: initial;&quot;&gt;(custom)&lt;/span&gt;&lt;/div&gt;&lt;div style=&quot;&quot;&gt;- Person is BIOSTATISTICIAN of DataRequest&amp;nbsp;&lt;span style=&quot;background-color: initial;&quot;&gt;(custom)&lt;/span&gt;&lt;/div&gt;&lt;br&gt;&lt;div style=&quot;&quot;&gt;&lt;span style=&quot;background-color: initial;&quot;&gt;Roles can be &quot;pre-defined&quot;, like &quot;OWNER&quot; or &quot;&lt;/span&gt;CONTRIBUTOR&lt;span style=&quot;background-color: initial;&quot;&gt;&quot;; or can be &quot;custom&quot;, such as &quot;Research Project X&quot; has &quot;PROJECT MANAGER&quot;, or &quot;CO-PI&quot;, that may or may not have any permissions to that specific project.&lt;/span&gt;&lt;br&gt;&lt;/div&gt;&lt;/div&gt;" style="text;html=1;strokeColor=none;fillColor=none;align=left;verticalAlign=top;whiteSpace=wrap;rounded=0;" vertex="1" parent="-09lumX7fPDfFYuZ1dPq-1">
          <mxGeometry x="1190" y="1530" width="460" height="400" as="geometry" />
        </mxCell>
        <mxCell id="-09lumX7fPDfFYuZ1dPq-57" style="edgeStyle=orthogonalEdgeStyle;rounded=0;orthogonalLoop=1;jettySize=auto;html=1;exitX=0.5;exitY=0;exitDx=0;exitDy=0;entryX=1.01;entryY=0.384;entryDx=0;entryDy=0;entryPerimeter=0;startArrow=ERoneToMany;startFill=0;endArrow=ERmandOne;endFill=0;strokeColor=#3333FF;strokeWidth=2;endSize=10;startSize=10;" edge="1" parent="-09lumX7fPDfFYuZ1dPq-1" source="-09lumX7fPDfFYuZ1dPq-58" target="-09lumX7fPDfFYuZ1dPq-5">
          <mxGeometry relative="1" as="geometry">
            <Array as="points">
              <mxPoint x="1000" y="251" />
            </Array>
          </mxGeometry>
        </mxCell>
        <mxCell id="-09lumX7fPDfFYuZ1dPq-58" value="Protocol_Assignment" style="swimlane;childLayout=stackLayout;horizontal=1;startSize=30;horizontalStack=0;rounded=1;fontSize=14;fontStyle=0;strokeWidth=2;resizeParent=0;resizeLast=1;shadow=0;dashed=0;align=center;fillColor=#dae8fc;strokeColor=#6c8ebf;" vertex="1" parent="-09lumX7fPDfFYuZ1dPq-1">
          <mxGeometry x="920" y="300" width="160" height="200" as="geometry" />
        </mxCell>
        <mxCell id="-09lumX7fPDfFYuZ1dPq-59" value="+Protocol_ID&#xa;+Person_ID&#xa;+Role_ID&#xa;+other info about a specific&#xa;  Person assigned to a &#xa;  specific Protocol" style="align=left;strokeColor=none;fillColor=none;spacingLeft=4;fontSize=12;verticalAlign=top;resizable=0;rotatable=0;part=1;" vertex="1" parent="-09lumX7fPDfFYuZ1dPq-58">
          <mxGeometry y="30" width="160" height="170" as="geometry" />
        </mxCell>
        <mxCell id="-09lumX7fPDfFYuZ1dPq-60" style="edgeStyle=orthogonalEdgeStyle;rounded=0;orthogonalLoop=1;jettySize=auto;html=1;exitX=1;exitY=0.5;exitDx=0;exitDy=0;entryX=0.75;entryY=0;entryDx=0;entryDy=0;strokeColor=#3333FF;strokeWidth=2;startArrow=ERzeroToMany;startFill=0;endArrow=ERmandOne;endFill=0;startSize=10;endSize=10;" edge="1" parent="-09lumX7fPDfFYuZ1dPq-1" source="-09lumX7fPDfFYuZ1dPq-59" target="-09lumX7fPDfFYuZ1dPq-42">
          <mxGeometry relative="1" as="geometry" />
        </mxCell>
        <mxCell id="-09lumX7fPDfFYuZ1dPq-61" value="Project_Assignment" style="swimlane;childLayout=stackLayout;horizontal=1;startSize=30;horizontalStack=0;rounded=1;fontSize=14;fontStyle=0;strokeWidth=2;resizeParent=0;resizeLast=1;shadow=0;dashed=0;align=center;fillColor=#dae8fc;strokeColor=#6c8ebf;" vertex="1" parent="-09lumX7fPDfFYuZ1dPq-1">
          <mxGeometry x="420" y="1330" width="160" height="200" as="geometry" />
        </mxCell>
        <mxCell id="-09lumX7fPDfFYuZ1dPq-62" value="+Project_ID&#xa;+Person_ID&#xa;+Role_ID&#xa;+other info about a specific&#xa;  Person assigned to a &#xa;  specific Project" style="align=left;strokeColor=none;fillColor=none;spacingLeft=4;fontSize=12;verticalAlign=top;resizable=0;rotatable=0;part=1;" vertex="1" parent="-09lumX7fPDfFYuZ1dPq-61">
          <mxGeometry y="30" width="160" height="170" as="geometry" />
        </mxCell>
        <mxCell id="-09lumX7fPDfFYuZ1dPq-63" style="edgeStyle=orthogonalEdgeStyle;rounded=0;orthogonalLoop=1;jettySize=auto;html=1;exitX=1;exitY=0.25;exitDx=0;exitDy=0;entryX=0.25;entryY=0;entryDx=0;entryDy=0;strokeColor=#3333FF;strokeWidth=2;startArrow=ERzeroToMany;startFill=0;endArrow=ERmandOne;endFill=0;startSize=10;endSize=10;" edge="1" parent="-09lumX7fPDfFYuZ1dPq-1" source="-09lumX7fPDfFYuZ1dPq-62" target="-09lumX7fPDfFYuZ1dPq-14">
          <mxGeometry relative="1" as="geometry" />
        </mxCell>
        <mxCell id="-09lumX7fPDfFYuZ1dPq-64" style="edgeStyle=orthogonalEdgeStyle;rounded=0;orthogonalLoop=1;jettySize=auto;html=1;exitX=0.25;exitY=1;exitDx=0;exitDy=0;entryX=1.006;entryY=0.137;entryDx=0;entryDy=0;entryPerimeter=0;strokeColor=#3333FF;strokeWidth=2;startArrow=ERmandOne;startFill=0;endArrow=ERzeroToMany;endFill=0;startSize=10;endSize=10;" edge="1" parent="-09lumX7fPDfFYuZ1dPq-1" source="-09lumX7fPDfFYuZ1dPq-43" target="-09lumX7fPDfFYuZ1dPq-62">
          <mxGeometry relative="1" as="geometry">
            <Array as="points">
              <mxPoint x="1469" y="1290" />
              <mxPoint x="1260" y="1290" />
              <mxPoint x="1260" y="1383" />
            </Array>
          </mxGeometry>
        </mxCell>
        <mxCell id="-09lumX7fPDfFYuZ1dPq-65" value="Cohort_Assignment" style="swimlane;childLayout=stackLayout;horizontal=1;startSize=30;horizontalStack=0;rounded=1;fontSize=14;fontStyle=0;strokeWidth=2;resizeParent=0;resizeLast=1;shadow=0;dashed=0;align=center;strokeColor=#6c8ebf;fillColor=#dae8fc;" vertex="1" parent="-09lumX7fPDfFYuZ1dPq-1">
          <mxGeometry x="810" y="680" width="160" height="200" as="geometry" />
        </mxCell>
        <mxCell id="-09lumX7fPDfFYuZ1dPq-66" value="+Cohort_ID&#xa;+Person_ID&#xa;+Role_ID&#xa;+other info about a specific&#xa;  Person assigned to a &#xa;  specific Cohort" style="align=left;strokeColor=none;fillColor=none;spacingLeft=4;fontSize=12;verticalAlign=top;resizable=0;rotatable=0;part=1;" vertex="1" parent="-09lumX7fPDfFYuZ1dPq-65">
          <mxGeometry y="30" width="160" height="170" as="geometry" />
        </mxCell>
        <mxCell id="-09lumX7fPDfFYuZ1dPq-67" style="edgeStyle=orthogonalEdgeStyle;rounded=0;orthogonalLoop=1;jettySize=auto;html=1;exitX=0;exitY=0.5;exitDx=0;exitDy=0;entryX=0.706;entryY=0.001;entryDx=0;entryDy=0;entryPerimeter=0;strokeColor=#3333FF;strokeWidth=2;startArrow=ERzeroToMany;startFill=0;endArrow=ERmandOne;endFill=0;startSize=10;endSize=10;" edge="1" parent="-09lumX7fPDfFYuZ1dPq-1" source="-09lumX7fPDfFYuZ1dPq-66" target="-09lumX7fPDfFYuZ1dPq-10">
          <mxGeometry relative="1" as="geometry" />
        </mxCell>
        <mxCell id="-09lumX7fPDfFYuZ1dPq-68" style="edgeStyle=orthogonalEdgeStyle;rounded=0;orthogonalLoop=1;jettySize=auto;html=1;exitX=1;exitY=0.5;exitDx=0;exitDy=0;entryX=0.25;entryY=0;entryDx=0;entryDy=0;strokeColor=#3333FF;strokeWidth=2;startArrow=ERzeroToMany;startFill=0;endArrow=ERmandOne;endFill=0;startSize=10;endSize=10;" edge="1" parent="-09lumX7fPDfFYuZ1dPq-1" source="-09lumX7fPDfFYuZ1dPq-66" target="-09lumX7fPDfFYuZ1dPq-42">
          <mxGeometry relative="1" as="geometry" />
        </mxCell>
        <mxCell id="-09lumX7fPDfFYuZ1dPq-69" value="DataRequest_Assignment" style="swimlane;childLayout=stackLayout;horizontal=1;startSize=30;horizontalStack=0;rounded=1;fontSize=14;fontStyle=0;strokeWidth=2;resizeParent=0;resizeLast=1;shadow=0;dashed=0;align=center;strokeColor=#6c8ebf;fillColor=#dae8fc;" vertex="1" parent="-09lumX7fPDfFYuZ1dPq-1">
          <mxGeometry x="410" y="620" width="200" height="200" as="geometry" />
        </mxCell>
        <mxCell id="-09lumX7fPDfFYuZ1dPq-70" value="+DataRequest_ID&#xa;+Person_ID&#xa;+Role_ID&#xa;+other info about a specific&#xa;  Person assigned to a &#xa;  specific Data Request" style="align=left;strokeColor=none;fillColor=none;spacingLeft=4;fontSize=12;verticalAlign=top;resizable=0;rotatable=0;part=1;" vertex="1" parent="-09lumX7fPDfFYuZ1dPq-69">
          <mxGeometry y="30" width="200" height="170" as="geometry" />
        </mxCell>
        <mxCell id="-09lumX7fPDfFYuZ1dPq-71" style="edgeStyle=orthogonalEdgeStyle;rounded=0;orthogonalLoop=1;jettySize=auto;html=1;exitX=1;exitY=0.75;exitDx=0;exitDy=0;entryX=0.25;entryY=0;entryDx=0;entryDy=0;strokeColor=#3333FF;strokeWidth=2;fontColor=#FFFFFF;startArrow=ERzeroToMany;startFill=0;endArrow=ERmandOne;endFill=0;startSize=10;endSize=10;" edge="1" parent="-09lumX7fPDfFYuZ1dPq-1" source="-09lumX7fPDfFYuZ1dPq-70" target="-09lumX7fPDfFYuZ1dPq-10">
          <mxGeometry relative="1" as="geometry" />
        </mxCell>
        <mxCell id="-09lumX7fPDfFYuZ1dPq-72" style="edgeStyle=orthogonalEdgeStyle;rounded=0;orthogonalLoop=1;jettySize=auto;html=1;exitX=1;exitY=0;exitDx=0;exitDy=0;entryX=0.5;entryY=0;entryDx=0;entryDy=0;strokeColor=#3333FF;strokeWidth=2;fontColor=#FFFFFF;startArrow=ERzeroToMany;startFill=0;endArrow=ERmandOne;endFill=0;startSize=10;endSize=10;" edge="1" parent="-09lumX7fPDfFYuZ1dPq-1" source="-09lumX7fPDfFYuZ1dPq-70" target="-09lumX7fPDfFYuZ1dPq-42">
          <mxGeometry relative="1" as="geometry">
            <Array as="points">
              <mxPoint x="1529" y="650" />
            </Array>
          </mxGeometry>
        </mxCell>
        <mxCell id="-09lumX7fPDfFYuZ1dPq-73" value="The Green relationship lines indicate connections between the major functional entities: DataRequest, Cohort, Protocol, Project, and Asset.&amp;nbsp; Implied JOIN tables may or may not have additional columns.&lt;br&gt;&lt;br&gt;The lines are green to enhance readability of this diagram." style="text;html=1;strokeColor=none;fillColor=none;align=left;verticalAlign=top;whiteSpace=wrap;rounded=0;fontColor=#00CC00;fontStyle=1" vertex="1" parent="-09lumX7fPDfFYuZ1dPq-1">
          <mxGeometry x="1170" y="470" width="320" height="130" as="geometry" />
        </mxCell>
        <mxCell id="-09lumX7fPDfFYuZ1dPq-74" value="EDWD_DataRequest_Assignment" style="swimlane;childLayout=stackLayout;horizontal=1;startSize=30;horizontalStack=0;rounded=1;fontSize=14;fontStyle=0;strokeWidth=2;resizeParent=0;resizeLast=1;shadow=0;dashed=0;align=center;strokeColor=#6c8ebf;fillColor=#dae8fc;" vertex="1" parent="-09lumX7fPDfFYuZ1dPq-1">
          <mxGeometry x="100" y="1330" width="220" height="200" as="geometry" />
        </mxCell>
        <mxCell id="-09lumX7fPDfFYuZ1dPq-75" value="+DataRequest_ID&#xa;+Person_ID&#xa;+other info about a specific&#xa;  EDW Developer assigned to a &#xa;  specific Data Request" style="align=left;strokeColor=none;fillColor=none;spacingLeft=4;fontSize=12;verticalAlign=top;resizable=0;rotatable=0;part=1;" vertex="1" parent="-09lumX7fPDfFYuZ1dPq-74">
          <mxGeometry y="30" width="220" height="170" as="geometry" />
        </mxCell>
        <mxCell id="-09lumX7fPDfFYuZ1dPq-76" style="edgeStyle=orthogonalEdgeStyle;rounded=0;orthogonalLoop=1;jettySize=auto;html=1;exitX=1;exitY=0.25;exitDx=0;exitDy=0;entryX=0.25;entryY=1;entryDx=0;entryDy=0;strokeColor=#3333FF;strokeWidth=2;startArrow=ERzeroToMany;startFill=0;endArrow=ERmandOne;endFill=0;endSize=10;startSize=10;" edge="1" parent="-09lumX7fPDfFYuZ1dPq-1" source="-09lumX7fPDfFYuZ1dPq-75" target="-09lumX7fPDfFYuZ1dPq-11">
          <mxGeometry relative="1" as="geometry">
            <mxPoint x="640" y="1260" as="targetPoint" />
            <Array as="points">
              <mxPoint x="360" y="1403" />
              <mxPoint x="360" y="1310" />
              <mxPoint x="659" y="1310" />
            </Array>
          </mxGeometry>
        </mxCell>
        <mxCell id="-09lumX7fPDfFYuZ1dPq-77" style="edgeStyle=orthogonalEdgeStyle;rounded=0;orthogonalLoop=1;jettySize=auto;html=1;exitX=0.25;exitY=1;exitDx=0;exitDy=0;entryX=0;entryY=0.25;entryDx=0;entryDy=0;strokeColor=#3333FF;strokeWidth=2;startArrow=ERmandOne;startFill=0;endArrow=ERzeroToMany;endFill=0;startSize=10;endSize=10;" edge="1" parent="-09lumX7fPDfFYuZ1dPq-1" source="-09lumX7fPDfFYuZ1dPq-3" target="-09lumX7fPDfFYuZ1dPq-75">
          <mxGeometry relative="1" as="geometry">
            <Array as="points">
              <mxPoint x="129" y="600" />
              <mxPoint x="60" y="600" />
              <mxPoint x="60" y="1403" />
            </Array>
          </mxGeometry>
        </mxCell>
        <mxCell id="-_piZmcqMC6uldmIi6DQ-4" style="edgeStyle=orthogonalEdgeStyle;rounded=0;orthogonalLoop=1;jettySize=auto;html=1;exitX=0.75;exitY=0;exitDx=0;exitDy=0;strokeColor=#3333FF;endArrow=ERmandOne;endFill=0;strokeWidth=2;endSize=10;startSize=10;startArrow=ERzeroToMany;startFill=0;" edge="1" parent="-09lumX7fPDfFYuZ1dPq-1" source="-_piZmcqMC6uldmIi6DQ-0" target="-09lumX7fPDfFYuZ1dPq-43">
          <mxGeometry relative="1" as="geometry">
            <Array as="points">
              <mxPoint x="1060" y="1430" />
              <mxPoint x="1320" y="1430" />
              <mxPoint x="1320" y="1320" />
              <mxPoint x="1496" y="1320" />
            </Array>
          </mxGeometry>
        </mxCell>
        <mxCell id="-_piZmcqMC6uldmIi6DQ-0" value="Asset_Assignment" style="swimlane;childLayout=stackLayout;horizontal=1;startSize=30;horizontalStack=0;rounded=1;fontSize=14;fontStyle=0;strokeWidth=2;resizeParent=0;resizeLast=1;shadow=0;dashed=0;align=center;fillColor=#dae8fc;strokeColor=#6c8ebf;" vertex="1" parent="-09lumX7fPDfFYuZ1dPq-1">
          <mxGeometry x="940" y="1775" width="160" height="200" as="geometry" />
        </mxCell>
        <mxCell id="-_piZmcqMC6uldmIi6DQ-1" value="+Asset_ID&#xa;+Person_ID&#xa;+Role_ID&#xa;+other info about a specific&#xa;  Person assigned to a &#xa;  specific Asset" style="align=left;strokeColor=none;fillColor=none;spacingLeft=4;fontSize=12;verticalAlign=top;resizable=0;rotatable=0;part=1;" vertex="1" parent="-_piZmcqMC6uldmIi6DQ-0">
          <mxGeometry y="30" width="160" height="170" as="geometry" />
        </mxCell>
        <mxCell id="-_piZmcqMC6uldmIi6DQ-2" style="edgeStyle=orthogonalEdgeStyle;rounded=0;orthogonalLoop=1;jettySize=auto;html=1;exitX=0;exitY=0.25;exitDx=0;exitDy=0;entryX=1;entryY=0.5;entryDx=0;entryDy=0;strokeColor=#3333FF;strokeWidth=2;endArrow=ERmandOne;endFill=0;startArrow=ERzeroToMany;startFill=0;endSize=10;startSize=10;" edge="1" parent="-09lumX7fPDfFYuZ1dPq-1" source="-_piZmcqMC6uldmIi6DQ-1" target="-09lumX7fPDfFYuZ1dPq-20">
          <mxGeometry relative="1" as="geometry" />
        </mxCell>
        <mxCell id="-_piZmcqMC6uldmIi6DQ-3" style="edgeStyle=orthogonalEdgeStyle;rounded=0;orthogonalLoop=1;jettySize=auto;html=1;exitX=1;exitY=0.75;exitDx=0;exitDy=0;entryX=0.25;entryY=0;entryDx=0;entryDy=0;strokeColor=#3333FF;strokeWidth=2;endSize=10;startSize=10;endArrow=ERzeroToMany;endFill=0;startArrow=ERmandOne;startFill=0;" edge="1" parent="-09lumX7fPDfFYuZ1dPq-1" source="-09lumX7fPDfFYuZ1dPq-11" target="-_piZmcqMC6uldmIi6DQ-0">
          <mxGeometry relative="1" as="geometry" />
        </mxCell>
      </root>
    </mxGraphModel>
  </diagram>
</mxfile>
